/* XPM */
static char *_3e63ec7ab3d456ef6873de340bcd700plRMhuYHQBotq6sO[] = {
/* columns rows colors chars-per-pixel */
"59 59 246 2 ",
"   c #050202",
".  c #0B0102",
"X  c #0E010B",
"o  c #0F0B0C",
"O  c #140001",
"+  c #1C0000",
"@  c #14000D",
"#  c #17080B",
"$  c #0F0013",
"%  c #0F001B",
"&  c #150014",
"*  c #1B0215",
"=  c #12001C",
"-  c #1E041A",
";  c #1A0F16",
":  c #1E181A",
">  c #171213",
",  c #15110E",
"<  c #2A0A00",
"1  c #260704",
"2  c #281603",
"3  c #331301",
"4  c #3B1B00",
"5  c #381706",
"6  c #240E13",
"7  c #240B1D",
"8  c #260418",
"9  c #2B141B",
"0  c #27171A",
"q  c #351818",
"w  c #32090D",
"e  c #3C2401",
"r  c #382806",
"t  c #3D3300",
"y  c #382419",
"u  c #2B2000",
"i  c #0F0021",
"p  c #130022",
"a  c #1C0824",
"s  c #1F0030",
"d  c #260D21",
"f  c #280F22",
"g  c #260927",
"h  c #340B2B",
"j  c #2C1225",
"k  c #251F21",
"l  c #2D142A",
"z  c #2B1A24",
"x  c #321A23",
"c  c #30162A",
"v  c #331A2C",
"b  c #3B1C2C",
"n  c #381725",
"m  c #2C1534",
"M  c #361D31",
"N  c #3A1E33",
"B  c #37193B",
"V  c #2F0537",
"C  c #2A2426",
"Z  c #3B2622",
"A  c #3B232B",
"S  c #382629",
"D  c #3C2335",
"F  c #3B2E33",
"G  c #3F2639",
"H  c #3D2A3B",
"J  c #3D3135",
"K  c #3C313C",
"L  c #3D3B38",
"P  c #411B01",
"I  c #451818",
"U  c #452500",
"Y  c #452900",
"T  c #4A2C01",
"R  c #462609",
"E  c #512909",
"W  c #4B3706",
"Q  c #573A01",
"!  c #442416",
"~  c #4B351B",
"^  c #55361B",
"/  c #441527",
"(  c #451638",
")  c #43262D",
"_  c #422A2B",
"`  c #4A2828",
"'  c #43312B",
"]  c #4A3527",
"[  c #573727",
"{  c #422533",
"}  c #442D35",
"|  c #4B2B33",
" . c #40273A",
".. c #442B3E",
"X. c #4A2B3C",
"o. c #4D203F",
"O. c #502838",
"+. c #433132",
"@. c #45343B",
"#. c #4B343C",
"$. c #44393D",
"%. c #4C3734",
"&. c #553637",
"*. c #633737",
"=. c #5A4106",
"-. c #514314",
";. c #634504",
":. c #685607",
">. c #705412",
",. c #7D6912",
"<. c #594636",
"1. c #6A4C30",
"2. c #776923",
"3. c #381E46",
"4. c #3E2748",
"5. c #3F3744",
"6. c #481546",
"7. c #462C42",
"8. c #482E42",
"9. c #44294B",
"0. c #482648",
"q. c #4A3144",
"w. c #4E3549",
"e. c #453546",
"r. c #52394C",
"t. c #553746",
"y. c #452654",
"u. c #45255B",
"i. c #4A2754",
"p. c #562855",
"a. c #483354",
"s. c #5A3D52",
"d. c #563859",
"f. c #5E2945",
"g. c #63354A",
"h. c #643159",
"j. c #61285D",
"k. c #4B2362",
"l. c #482265",
"z. c #542B62",
"x. c #642A64",
"c. c #4B4044",
"v. c #59454C",
"b. c #5A4154",
"n. c #5E4758",
"m. c #68534A",
"M. c #654A5A",
"N. c #675458",
"B. c #684B52",
"V. c #584060",
"C. c #674C61",
"Z. c #6B5265",
"A. c #755966",
"S. c #785F72",
"D. c #7B6275",
"F. c #7E676F",
"G. c #83680B",
"H. c #997D1D",
"J. c #8A750A",
"K. c #8F6F25",
"L. c #8B752B",
"P. c #907835",
"I. c #816C77",
"U. c #887575",
"Y. c #A78E14",
"T. c #9D8524",
"R. c #AA8F33",
"E. c #BCA03C",
"W. c #97820D",
"Q. c #CAB434",
"!. c #DACA06",
"~. c #E5DC00",
"^. c #E7D909",
"/. c #FADA01",
"(. c #F6D90A",
"). c #E7D714",
"_. c #FDDD14",
"`. c #FEDD1C",
"'. c #F3D516",
"]. c #E0CF1D",
"[. c #FEE301",
"{. c #FAEB01",
"}. c #F6E40D",
"|. c #FEE30B",
" X c #F7EB0A",
".X c #FEF105",
"XX c #EEE214",
"oX c #FFE313",
"OX c #FDEC13",
"+X c #FEE21C",
"@X c #F7E618",
"#X c #FFF118",
"$X c #F0CD29",
"%X c #E9D425",
"&X c #F9DA27",
"*X c #E7CD37",
"=X c #E9D431",
"-X c #F2D231",
";X c #FFE424",
":X c #FFEC22",
">X c #FBE92A",
",X c #FFF42A",
"<X c #FFF323",
"1X c #FEED3B",
"2X c #F7E634",
"3X c #FFF633",
"4X c #FFF33B",
"5X c #FFFD39",
"6X c #EFE224",
"7X c #B69E47",
"8X c #BEA145",
"9X c #D5BA4B",
"0X c #C9B14E",
"qX c #CDBC60",
"wX c #EBD645",
"eX c #F8D646",
"rX c #F9DB57",
"tX c #EBCC4E",
"yX c #FDE947",
"uX c #FFF444",
"iX c #FFF34C",
"pX c #FFFA4C",
"aX c #FCEA5C",
"sX c #FEE854",
"dX c #FFF35C",
"fX c #FFF755",
"gX c #D9C871",
"hX c #E6CF68",
"jX c #E6CC78",
"kX c #F2D86E",
"lX c #FEE964",
"zX c #FFF363",
"xX c #FFF56A",
"cX c #FCE874",
"vX c #FFF777",
"bX c #DDC54B",
"nX c #92798C",
"mX c #90778C",
"MX c #978291",
"NX c #B099A8",
"BX c #B59DA8",
"VX c #FFFE8A",
"CX c #FFF788",
"ZX c #FEF28E",
"AX c #E6CA80",
"SX c #D4C1C7",
/* pixels */
"G G G G G G G G G G G G G G G F J L , X K e.m a.4.3.4.i.i.0.0.p.6.x.6.6.h.( & * s.8 - a.a.a g V.c t.#.# 9 n.@.  F k o ",
"G G G G G G G G G G G G G G G G J L , X K e.M 9.B B B 3.0.0.0.p.6.j.6.( h.( * 8 ( ( 0.d.d.9.3.B  .} { A S +.@.J F k o ",
"G G G G G G G G G G G G G G G G J L ; X K e.D e.G G N b ( X.t.g.( p.( ( h.o.8 d N s.s.G B a.a.g r.A b #.{ 6 S N.F k o ",
"G G G G G G G G G G G G G G G H K 5.; X K $.C @.} #.| Z ! [ [ &./ f.( / g.o.8 h s.s.0.l g B 4.4.t.{ A { { S S J F k o ",
"G G G G G G G G G G G G G G G H 4.e.a $ K @.Z ] q ] ^ e 4 T U < I *./ I g.O.8 n C. . .C.n.m g w.v #.} x t.I.N.# J C o ",
"G G G G G G G G G G G G G G G G 4.a.a $ K +.y ~ < W >.=.Q ;.T + E *.I I *.` w n t.c w.MXnX7.a 7.6 X.} x N.BXU.; F k o ",
"G G G G G G G G G G G G G G G G 4.a.a & +.] r W Y L.7X7X7X0XH.Q Q 1.E P [ ` 1 n ( b r.D.D.w.M M b A A A B.I.N.k F k o ",
"G G G G G G G G G G G G G G G G 9.a.a @ ' ~ e W ,.qXCXVXVXVXlXR.;.>.T P ^ ! 1 q b X. .d d H q.D v.b 9 { #.x ; 0 F k o ",
"..................7.8.q.7...G D d.m f A 2 + :.gXCXvXxXzXdXdXaXlXkXR.Q < 3 R ! w A.q.N w.b.@.@.v.{ B.Z.#.x @.v.c.$.C o ",
"..................7.8.q.7...G D B 4.v 1 r L.qXcXxXzXfXpXiXuXuXsXvXbXH.Q P 4 < + ) j 7 l v z 6 6 # 9 x 9 6 9 z 0 S :   ",
"..................7.8.q.7...G D j t.Z O W jXVXaXfXpXuX4X4X4X1XyXzXlX9XH.Q < + + 1 8 7 - 6 9 # . O O O 6 9 6 # # 0 o   ",
"..................7.8.q.7...G D X.&.< O >.ZXVX*XuX3X,X,X,X>X>X1X-XyXrX0X,.3 1 5 q {  .j 9 A Z # A 9 9 { { 0 0 J : o   ",
"..................7.8.q.7...G D B.q + Y R.cXdX=X3X<X#X#X#X:X;X;X!.%XsXtXH.U < ! ` t.q.b x S ' Z t.t.#.#.A 9 F v.k : o ",
"..................7.8.q.7...G A m.< < P.kXxXyX5X<X#X#XOXOX+X+X+X).%XyXaXE.Q 1 3 ` b { #.A 0 0 ' | t.#.A x } @.J F C , ",
"..................7.8.q.7...G A &.3 Q 0XVXzX2X,X#XOX.X XoXoX+X`.@X).2XzX9X:.3 < | x X.F.A.0 # %.q #.{ 9 t.U.N.@ $.C o ",
"..................7.8.q.7...G A ! T 2.qXvXiX).!.OXOXOXoXoXoX_._.#X!.%XdXkXK.U 5 g.b M.BXNX+.2 m.9 #.{ x F.SXMX  e.C o ",
"................q.8.7..... . .) ! e R.vXfX6X@X^.@X'.&X4X4X`.(._.}.^.2X*XcXAXU < | 8.7.7.} +.' ' } } } } } } F J c.:   ",
"................q.8.7..... . .) ! U T.xXuXXXOX}.@X'.&XuX4X`.(.|. X~.6X*XcXjXU < | 8.7.7.} } ' ' } } } } } } F J c.:   ",
"................q.8.7..... . .) ~ Y T.lX1X).OX}.@X'.&XuX4X`./.[.{.~.@X%XcXjXU < | 8.7.7...} ' ' } } } } } } F J c.:   ",
"................q.8.7..... . ._ ^ T T.aX2X^.OXOX}.'.&X4X3XoX/.[.{.~.@X].xXjXU < | 8.7.7...} +.' } } } } } } F J c.:   ",
"................q.8.7..... . ._ ^ T T.aX2X^. X X}.'.;X4X3XoX/.[.{.~. X].lXhXY < | X.7.7.7.} } } } } } } } } } J c.:   ",
"................q.8.7..... . .) ~ Y T.lX1X^. X X}.(.+X3X,X|./.[.{.~. X).dXhXY < | X.7.7.7...} } } | } } } } } J c.:   ",
"................q.8.7..... . .) ! U T.xXuXXX X}.}.(.+X3X,X[./.[.{.~. X).dXhXU < | 8.0.0.7.7...} } | } } } } } J c.:   ",
"................q.8.7..... . .) ! U R.vXpXXX}.~.}.(.+X3X,X[./.[.{.~. X).dXhXY < | 8.0.9.0.7...} } | } } } } } J c.:   ",
"..............................} *.^ Q W.yX>X^.5X<X:X;X+X_.[.[.[..X~.}.pXwXG.4 3 | 0.9.9.9.7...} } } } } } } } J $.k   ",
"..............................X.| [ T G.wX1X).#X:X;X&X&X_./.[.[..X~.^.yXbX,.4 1 X.0.y.y.9.7...} } } } } } } } J $.k   ",
"................................b &.Y ;.Q.uX&X).&X&X&X&X'._.[.[.OX^.].wXE.;.< 1 0.i.y.y.9.7...} } | } } } } } J $.k   ",
"..............................7.B t.4 4 Y.sX1X&X%X$X$X$X'._.|.|.>X2XwX9XK.4 + 8 i.u.u.y.9.7...} } } } } } } } J $.k   ",
"..............................7.6.s.< + ,.*XyXiX-X-X-X$X$X`._.+XyXaXrX8X;.+ + h u.k.u.u.9.7.} } } } } } } } F J $.k   ",
"..............................0.i.d.w + Q Y.Q.fXeXeXeX-X-X&X`.;XyXrX0XK.U + * V k.l.l.u.9.7.} } } } } } } } F J $.k   ",
"..............................0.z.z.w 1 T ;.J.*XsXrXrXeX-X&X`.&XrX0XG.T 4 q h s l.l.l.u.9.7.} } } } } } } } } J $.k   ",
"..............................0.k.p.h 5 U 3 Q Q.cXcXkXrXeX-X2XeXkXP.4 + q t.B p k.l.u.y.0.7.} } } } } } } } } J $.k   ",
"..............................7.y.z.m 8 ` ~ e =.e L.gXZXCXcXE.J.W ] q _ M.{ @ g 0.0.0.7.7.....X.} } } } } } } J $.k   ",
"..............................7.9.d.m - 7.#.Z <.2 -.2.2.2.2.:.t 2 ..c l t...- j ................| | } } } } } J $.k   ",
"..............................7.a.d.m - ..#.' m.<.~ r 2 u W t 2 <.mXD.H 7...7 - ................| | } } } } } J $.k   ",
"..............................7.a.d.l * ..w.#.N.U.1.r 2 r W W r v.NXnXH M  .f & ................| | } } } } } J $.k   ",
"..............................7.9.d.j - ..q.X.B.N.%.q y ] [ ~ y . C.b.& 7 ..D v ................} } } } } } F J $.k   ",
"..............................7...r.l 7 7.7.v t.{ 9 9 _ #._ q 9 . w...* v  .j l ................} } } } } } F J $.k   ",
"................................D w.l d 8.G d D j * - M M 7 - l v w.D v w.D @ - ................} } } } } } F J $.k   ",
"................................v q.c f q.D * j - $ $ = $ % % g X @ X 7 s.G @ j ................} } } } } } F J $.k   ",
"v M D G G D M v G G G G G G D G q.A 6 @ & - d g $ $ % % = p p % & l & X l d & M ................} } } } } } } J $.k   ",
"8.7.7.....7.7.8.r.t.w.w.q.8.7...w.D 7 & & * * & & = = = p p p = $ 7 @ X f 7 @ c ................| | } } } } } J $.k   ",
" .G D M M D G  .7.7.....G G D D q.D l 7 - * @ X & & = = = p p = X - X X 7 - X j ................| | } } } } } J $.k   ",
"M D G ....G D M D G G  .....7.7.G v j 7 f 7 * X & & & & & & & & X 7 @ X l 7 @ j ................| | } } } } } J $.k   ",
"..w.n.Z.Z.n.w...8.q.t.s.M.C.Z.A.v l d j c v l 7 @ & @ @ @ @ @ @ @ c 7 - D l & c ................} } } } } } } J $.k   ",
"G q.b.C.C.b.q.G  ...q.r.b.M.Z.Z.N c j j D  . .D 6 6 6 6 6 6 6 6 6 ..M l q.M & l ................} } } } } } } J $.k   ",
"D D G  . .G D D N D D  ...7.q.w.w.G v l D X.#.#.S S Z Z Z y y Z x t. .M w.M @ d ................} } } } } } } J $.k   ",
"r.q.G v v G q.r.w.w.q.q.7.7.7.7.M.w.D c N  .#.#.#.#.%.%.%.%.%.%.v r...N w.v X - ................} } } } } } } J $.k   ",
"b.M c w.b...D q. .G ..q.8. .7.r.M d * d D q.q.G X.X.X.X.} } } X.c w.G c q.v @ f ................} } } } } } } J $.k   ",
"7 @ @ * - & @ - * & * - & @ @ * v d * d D q.7.G ................v w.G c q.v @ f ................} } } } } } } J $.k   ",
"* j j * @ 7 f 7 j j f 7 - - * & M f - d D q...D ................v w.G c q.v @ f ................} } } } } } } J $.k   ",
"M r.s.D v 7.t.7.t.r.w. . .8. .c D j - d D 7...N ................v w.G c q.v @ f ................} } } } } } } J $.k   ",
"M q.w...G 7.8.G q.t.8.M G r.q.j G l 7 d D .. .v ................v w.G c q.v @ f ................} } } } } } } J $.k   ",
" .v N t.b.8.M v N 7.G j D M.s.l G l 7 f D ..G v ................v w.G c q.v @ f ................} } } } } } F J $.k   ",
"M.l c S.mXb.M G D w.7.v w.I.D.q. .c 7 f D ..D c ................v w.G c q.v @ f ................} } } } } } } J $.k   ",
"S.7 7 mXNXM.c  .v q.7.M s.nXmXb...v 7 j D ..D c ................v w.G c q.v @ f ................} } } } } } F J $.k   ",
"................q.8.7..... . .G w.N 7 7 M 7.7.G ................v w.G c q.v @ f ................} } } } } } } J $.k   ",
"................q.8.7..... . .G w.N 7 7 M 7.7.G ................v w.G c q.v @ f ................} } } } } } } J $.k   ",
"................q.8.7..... . .G w.N 7 7 M 7.7.G ................v w.G c q.v @ f ................| | } } } } } J $.k   "
};
