/* XPM */
static char *_602ed70cf7a468984d9986eeb60169dAlM4vJGc0pn8kJed[] = {
/* columns rows colors chars-per-pixel */
"73 72 114 2 ",
"   c #070000",
".  c #090001",
"X  c #0F0009",
"o  c #150005",
"O  c #13000C",
"+  c #1D040D",
"@  c #160A0E",
"#  c #170011",
"$  c #1B0215",
"%  c #190D11",
"&  c #1E0518",
"*  c #1D1115",
"=  c #210511",
"-  c #230B14",
";  c #20071A",
":  c #240B1E",
">  c #2A0E19",
",  c #23151A",
"<  c #2C141C",
"1  c #261A1E",
"2  c #270E21",
"3  c #280F22",
"4  c #2B1225",
"5  c #2F1E24",
"6  c #2F1629",
"7  c #301420",
"8  c #351C25",
"9  c #30172A",
"0  c #331A2D",
"q  c #3A1E2A",
"w  c #361D30",
"e  c #381F32",
"r  c #312026",
"t  c #352229",
"y  c #3B262E",
"u  c #39282E",
"i  c #3B2235",
"p  c #3D2930",
"a  c #3E2538",
"s  c #41262F",
"d  c #422632",
"f  c #422B33",
"g  c #482D36",
"h  c #40273A",
"j  c #432A3D",
"k  c #492D39",
"l  c #433137",
"z  c #453339",
"x  c #4B333B",
"c  c #4A383E",
"v  c #51363F",
"b  c #462D40",
"n  c #482F42",
"m  c #4B3245",
"M  c #4E3B41",
"N  c #4E3548",
"B  c #523741",
"V  c #543C44",
"C  c #50374A",
"Z  c #533A4D",
"A  c #573E51",
"S  c #583F52",
"D  c #554248",
"F  c #5C404A",
"G  c #5B4255",
"H  c #5F4659",
"J  c #60464F",
"K  c #60475A",
"L  c #61485B",
"P  c #62495C",
"I  c #634A5D",
"U  c #644B5E",
"Y  c #654C5F",
"T  c #634A5D",
"R  c #6A535B",
"E  c #6C505C",
"W  c #684F62",
"Q  c #684F62",
"!  c #6A5164",
"~  c #6E5568",
"^  c #6F5669",
"/  c #785F72",
"(  c #7E6578",
")  c #846B7E",
"_  c #876E81",
"`  c #8B7285",
"'  c #8F7689",
"]  c #937881",
"[  c #937A8D",
"{  c #947B8E",
"}  c #977E91",
"|  c #987F92",
" . c #9B818A",
".. c #9C8396",
"X. c #9E8598",
"o. c #9F8699",
"O. c #A0879A",
"+. c #A1889B",
"@. c #A58C9F",
"#. c #A2899C",
"$. c #B69BA4",
"%. c #B39AAD",
"&. c #B49BAE",
"*. c #B299AC",
"=. c #B79EB1",
"-. c #B69DB0",
";. c #BEA3AC",
":. c #BFA5AE",
">. c #BFA6B9",
",. c #C2A7B0",
"<. c #C8AEB7",
"1. c #C3AABD",
"2. c #C8AFC2",
"3. c #CBB2C5",
/* pixels */
"9 0 i a a a i i i i i i i i i i h b h i j m 0 X 4 0 h h i w i h i i i i i i i i w j j a h n w # O m A 6 : j j ; a a a a a a a a - B V < > f u     ",
"0 0 i a h a a i i i i i i i i i h b h i j m 0 X 4 w h j i e i h i i i i i i i i w j j a h n w # O h Z a 9 h b i a a a a a a a a y B B t 8 f t X   ",
"0 w i a h h a a i i i i i i i i h b h i j m 0 X 6 e j j a i a j i i i i i i i i w j j a h n w # # 0 N N a i j Z a a a a a a a a B x f f x z 5 @   ",
"0 e a h j j h a a a a a a a a a h b h i j m 0 X 6 i j j a i a j a a a a a a a a w j j a h n w # ; 0 m Z j 0 a Z a a a a a a a a B y 8 f B x r *   ",
"w i a j j j j h h h h h h h h h h b h i j m 0 X 9 i b b h a h b h h h h h h h h w j j a h n w # 4 i m m h i a h a a a a a a a a d y t p c c u ,   ",
"i i h j b b j j j j j j j j j j h b h i j m 0 X 0 a n m j a j m j j j j j j j j w j j a h n w # 4 b m e j P G 9 a a a a a a a a q F J f u M l *   ",
"i a j b n n b j j j j j j j j j h b h i j m 0 X 0 a m m j h j m j j j j j j j j w j j a h n w # : Z m 2 N X.` 9 a a a a a a a a f ]  .c < M c X   ",
"i a j b m m b j j j j j j j j j h b h i j m 0 X 0 h m m j j j m j j j j j j j j w j j a h n w # & S N & G 3.%.i a a a a a a a a B ;.<.V = V M     ",
"w i a j j j h h j j j j j j j j h b h i j m 0 X 9 i j b h a h b j j j j j j j j i j a i j N w O 6 e j j a i a j h h h h h h h h q f f t f c u %   ",
"w i a j j j h h j j j j j j j j h b h i j m 0 X 9 i j b h a h b j j j j j j j j i j a i j N w O 4 0 a a e 0 e a i i i i i i i a 8 s s 8 u l t @   ",
"w i a j j j h h j j j j j j j j h b h i j m 0 X 9 i j b h a h b j j j j j j j j i j a i j N w O i j N N m j m N N N N N N N N N f v v g c D z 1   ",
"w i a j j j h h j j j j j j j j h b h i j m 0 X 9 i j b h a h b j j j j j j j j i j a i j N w O 6 i j j a i a j j j j j j j j h y g g y f c p *   ",
"w i a j j j h h j j j j j j j j h b h i j m 0 X 9 i j b h a h b j j j j j j j j i j a i j N w O X O $ $ # O # $ $ $ $ $ $ $ $ $ o + + o + - O     ",
"w i a j j j h h j j j j j j j j h b h i j m 0 X 9 i j b h a h b j j j j j j j j i j a i j N w O X O & ; $ # $ ; & & & & & & & & o = = o + , @     ",
"w e a j j j h h j j j j j j j j h b h i j m 0 X 9 i j b h a h b j j j j j j j j i j a i j N w O 6 e j j a i a j h h h h h h h h q f f t f c u %   ",
"w i a j j j h h j j j j j j j j h b h i j m 0 X 9 i j b h a h b j j j j j j j j i j a i j N w O w h m m b j b m m m m m m m m m d x x f x V l ,   ",
"w e a j j j h h j j j j j j j j h b h i j m 0 X 9 i j b h a h b j j j j j j j j h b h i j m 0 X w 2 i U Z ; 4 H j j j j j j j j E > o x R z , 1   ",
"w e a j j j h a j j j j j j j j h b h i j m 0 X 9 i j b h a h b j j j j j j j j h b h i j m 0 X $ 0 i 9 j L G w j j j j j j j j 7 x x t t M l *   ",
"w i a j j j h h j j j j j j j j h b h i j m 0 X 9 i j b h a h b j j j j j j j j h b h i j m 0 X & H A & m =.+.4 j j j j j j j j k $.:.x + M c     ",
"w i a j j j h h j j j j j j j j h b h i j m 0 X 9 i j b h a h b j j j j j j j j h b h i j m 0 X & Y H : m &.+.6 j j j j j j j j V ,.<.B + c z     ",
"w i a j j j h h j j j j j j j j h b h i j m 0 X 9 i j b h a h b j j j j j j j j h b h i j m 0 X O i j 4 0 G Z 4 j j j j j j j j = x V 8 < x l @   ",
"w i a j j j h h j j j j j j j j h b h i j m 0 X 9 i j b h a h b j j j j j j j j h b h i j m 0 X $ 0 m n 0 3 9 h j j j j j j j j 8 < < 8 g l t ,   ",
"w i a j j j h h j j j j j j j j h b h i j m 0 X 9 i j b h a h b j j j j j j j j h b h i j m 0 X 2 b H Z h i j N j j j j j j j j F F B x x z 5 O   ",
"w i a j j j h h j j j j j j j j h b h i j m 0 X 9 i j b h a h b j j j j j j j j h b h i j m 0 X O b S e 9 N C 0 j j j j j j j j > v V 8 8 M z %   ",
"w i a j j j h h j j j j j j j j h b h i j m 0 X 4 n m 9 4 j j 6 j j j j j j j j 4 Z G i a G b X : h N j a b b i j j j j j j j j d x x y f c u %   ",
"w i a j j j h h j j j j j j j j h b h i j m 0 X 4 a b a i h n b j j j j j j j j a C C h b A a X : h N j a b b i j j j j j j j j d x x y f c u %   ",
"w e a j j j h h j j j j j j j j h b h i j m 0 X 4 9 j N b i j G j j j j j j j j C b a j Z C 0 O : h N j a b b i j j j j j j j j d x k y f c u %   ",
"w i a j j j h h j j j j j j j j h b h i j m 0 X 9 4 a A N 0 e S j j j j j j j j Z w 4 i Z m 6 O : h N j a b b i j j j j j j j j d x x y f c u %   ",
"w e a j j j h h j j j j j j j j h b h i j m 0 X 0 6 i N N i 0 h j j j j j j j j b e 6 0 b m 0 $ : h N j a b b i j j j j j j j j d x x y f c u %   ",
"w e a j j j h h j j j j j j j j h b h i j m 0 X 9 i i a C P N 4 j j j j j j j j b G Z 0 0 m i O : h N j a b b i j j j j j j j j d x x y f c u %   ",
"w i a j j j h h j j j j j j j j h b h i j m 0 X 2 j i 6 H ..( 3 j j j j j j j j A | [ h : N b X : h N j a b b i j j j j j j j j d x x y f c u %   ",
"w i a j j j h h j j j j j j j j h b h i j m 0 X & b a : W 2.@.6 j j j j j j j j ! 2.1.N $ C m X : h N j a b b i j j j j j j j j d x x y f c u %   ",
"w i a j j j h h j j j j j j j j h b h i j m 0 X 6 e j j a i a j h h h h h h h h h m m h j N a : 4 j m a i j n a j j j j j j j j d x x y f c u %   ",
"w i a j j j h h j j j j j j j j h b h i j m 0 X 4 0 a a e 0 e a i i i i i i i i w h h 0 i j 0 # 4 j m a i j n a j j j j j j j j d x x y f c u %   ",
"w i a j j j h h j j j j j j j j h b h i j m 0 X i j N N m j m N N N N N N N N N h m m h j N a : 4 j m a i j n a j j j j j j j j d x k y f c u %   ",
"w i a j j j h h j j j j j j j j h b h i j m 0 X 6 i j j a i a j j j j j j j j j i j j i a b e $ 4 j m a i j n a j j j j j j j j d x x y f c u %   ",
"w i a j j j h h j j j j j j j j h b h i j m 0 X X O $ $ # O # $ $ $ $ $ $ $ $ $ $ : : $ $ : # X 4 j m a e j n a j j j j j j j j d x x y f c u %   ",
"w i a j j j h h j j j j j j j j h b h i j m 0 X X O & ; $ # $ ; & & & & & & & & & 4 4 & : 4 $ X 4 j m a i j n a j j j j j j j j d x x y f c u %   ",
"w e a j j j h h j j j j j j j j h b h i j m 0 X 6 e j j a i a j h h h h h h h h a n b i h m i & 4 j m a i j n a j j j j j j j j d x x y f c u %   ",
"w i a j j j h h j j j j j j j j h b h i j m 0 X w h m m b j b m m m m m m m m m h m m a j m a ; 4 j m a i j n a j j j j j j j j d x x y f c u %   ",
"w e a j j j h h j j j j j j j j h b h i j m 0 X m ; 9 W H & & G j j j j j j j j ^ 2 X m ^ N 4 2 : h N j a b b i j j j j j j j j d x x y f c u %   ",
"w e a j j j h a j j j j j j j j h b h i j m 0 X 6 9 9 w m H N 0 j j j j j j j j 0 b b 0 a A b & : h N j a b b i j j j j j j j j d x x y f c u %   ",
"w i a j j j h h j j j j j j j j h b h i j m 0 X 6 G m ; Z %.} 2 j j j j j j j j m %.=.n ; S N X : h N j a b b i j j j j j j j j d x k y f c u %   ",
"w i a j j j h h j j j j j j j j h b h i j m 0 X 9 K Z 2 A *.} 4 j j j j j j j j G >.>.N ; Z n X : h N j a b b i j j j j j j j j d x x y f c u %   ",
"w i a j j j h h j j j j j j j j h b h i j m 0 X : w i 6 a A m 3 j j j j j j j j : m N 6 9 C b $ : h N j a b b i j j j j j j j j d x x y f c u %   ",
"w i a j j j h h j j j j j j j j h b h i j m 0 X 6 6 a m a : 2 a j j j j j j j j i 4 : 0 m N e ; : h N j a b b i j j j j j j j j d x x y f c u %   ",
"w i a j j j h h j j j j j j j j h b h i j m 0 X e j Z S m e i m j j j j j j j j H A m j N N 0 O : h N j a b b i j j j j j j j j d x x y f c u %   ",
"w i a j j j h h j j j j j j j j h b h i j m 0 X : j m a i m b 0 j j j j j j j j 4 N N 0 w A m $ : h N j a b b i j j j j j j j j d x x y f c u %   ",
"w i a j j j h h j j j j j j j j h b h i j m 0 X 9 i j b h a h b j j j j j j j j h b h i j m 0 X : h N j a b b i j j j j j j j j d x x y f c u %   ",
"w i a j j j h h j j j j j j j j h b h i j m 0 X 9 i j b h a h b j j j j j j j j h b h i j m 0 X : h N j a b b i j j j j j j j j d x x y f c u %   ",
"w e a j j j h h j j j j j j j j h b h i j m 0 X 9 i j b h a h b j j j j j j j j h b h i j m 0 X : h N j a b b i j j j j j j j j d x k y f c u %   ",
"w i a j j j h h j j j j j j j j h b h i j m 0 X 9 i j b h a h b j j j j j j j j h b h i j m 0 X : h N j a b b i j j j j j j j j d x x y f c u %   ",
"w e a j j j h h j j j j j j j j h b h i j m 0 X 9 i j b h a h b j j j j j j j j h b h i j m 0 X : h N j a b b i j j j j j j j j d x x y f c u %   ",
"w e a j j j h h j j j j j j j j h b h i j m 0 X 9 i j b h a h b j j j j j j j j h b h i j m 0 X : h N j a b b i j j j j j j j j d x x y f c u %   ",
"w i a j j j h h j j j j j j j j h b h i j m 0 X 9 i j b h a h b j j j j j j j j h b h i j m 0 X : h N j a b b i j j j j j j j j d x x y f c u %   ",
"w i a j j j h h j j j j j j j j h b h i j m 0 X 9 i j b h a h b j j j j j j j j h b h i j m 0 X : h N j a b b i j j j j j j j j d x x y f c u %   ",
"e i a h h a i e h h h h h h h h h m m h j N a : 9 i j b h a h b j j j j j j j j h b h i j m 0 X : h N j a b b i j j j j j j j j d x x y f c u %   ",
"0 w i i i i w 0 i i i i i i i i w h h 0 i j 0 # 9 i j b h a h b j j j j j j j j h b h i j m 0 X : h N j a b b i j j j j j j j j d x x y f c u %   ",
"j b m m m m b j N N N N N N N N h m m h j N a : 9 i j b h a h b j j j j j j j j h b h i j m 0 X : h N j a b b i j j j j j j j j d x k y f c u %   ",
"i i a j j a i i j j j j j j j j i j j i a b e $ 9 i j b h a h b j j j j j j j j h b h i j m 0 X : h N j a b b i j j j j j j j j d x x y f c u %   ",
"O O # $ $ # O O $ $ $ $ $ $ $ $ $ : : $ $ : # X 9 i j b h a h b j j j j j j j j h b h i j m 0 X : h N j a b b i j j j j j j j j d x x y f c u %   ",
"O # $ & & $ # O & & & & & & & & & 4 4 & : 4 $ X 9 i j b h a h b j j j j j j j j h b h i j m 0 X : h N j a b b i j j j j j j j j d x x y f c u %   ",
"e i a h h a i e h h h h h h h h a n b i h m i & 9 i j b h a h b j j j j j j j j h b h i j m 0 X : h N j a b b i j j j j j j j j d x x y f c u %   ",
"h j b m m b j h m m m m m m m m h m m a j m a ; 9 i j b h a h b j j j j j j j j h b h i j m 0 X : h N j a b b i j j j j j j j j d x x y f c u %   ",
"a Z C w 4 a N C j j j j j j j j i Z C w i Z j # 9 i j b h a h b j j j j j j j j h b h i j m 0 X : h N j a b b i j j j j j j j j d x x y f c u %   ",
"0 e w w N U A w j j j j j j j j 0 N N 0 i Z j $ 9 i j b h a h b j j j j j j j j h b h i j m 0 X : h N j a b b i j j j j j j j j d x x y f c u %   ",
"h i i Z _ #./ i j j j j j j j j ) { ) G m N 0 X 9 i j b h a h b j j j j j j j j h b h i j m 0 X : h N j a b b i j j j j j j j j d x x y f c u %   ",
"j j j S _ X./ a j j j j j j j j ' O.' H m m 4 X 9 i j b h a h b j j j j j j j j h b h i j m 0 X : h N j a b b i j j j j j j j j d x x y f c u %   ",
"4 w i i b A m 9 j j j j j j j j 9 m m 9 0 N a O 9 i j b h a h b j j j j j j j j h b h i j m 0 X : h N j a b b i j j j j j j j j d x x y f c u %   ",
"4 b N i 4 0 a i j j j j j j j j : h j 4 0 N h # 9 i j b h a h b j j j j j j j j h b h i j m 0 X : h N j a b b i j j j j j j j j d x x y f c u %   ",
"e Z H m a b N m j j j j j j j j C W L h a N i X 9 i j b h a h b j j j j j j j j h b h i j m 0 X : h N j a b b i j j j j j j j j d x k y f c u %   ",
"4 j N b j N n w j j j j j j j j 0 N N 0 i Z j $ 9 i j b h a h b j j j j j j j j h b h i j m 0 X : h N j a b b i j j j j j j j j d x x y f c u %   "
};
