/* XPM */
static char *_a591740794b481eff83caddd542523eBJ3lRD5G74Ht76df[] = {
/* columns rows colors chars-per-pixel */
"80 80 3 1 ",
"  c black",
". c #402639",
"X c #F2E632",
/* pixels */
"........................  ...........................  .......................  ",
"........................  ...........................  .......................  ",
"........................  ...........................  .......................  ",
"........................  ...........................  .......................  ",
"........................  ...........................  .......................  ",
"........................  ...........................  .......................  ",
"........................  ...........................  .......................  ",
"........................  ...........................  .......................  ",
"........................  ...........................  .......................  ",
"........................  ...........................  .......................  ",
"........................  ...........................  .......................  ",
"........................  ...........................  .......................  ",
"........................  ...........................  ....XX............XX...  ",
"........................  ...........................  ....XX............XX...  ",
"........................  ...........................  .......................  ",
"........................  ...........................  .......................  ",
"........................  ...........................  .......................  ",
"........................  ...........................  .......................  ",
"........................  ...........................  .......................  ",
"........................  ...........................                           ",
"........................  ...........................                           ",
"........................  ...........................  .......................  ",
"........................  ...........................  .......................  ",
"........................  ...........................  .......................  ",
"........................  ...........................  .......................  ",
"........................  ...........................  .......................  ",
"........................  ...........................  ....XX............XX...  ",
"........................  ...........................  ....XX............XX...  ",
"........................  ...........................  .......................  ",
"........................  ...........................  .......................  ",
"........................  ...........................  .......................  ",
"........................  ...........................  .......................  ",
"........................  ....XX...............XX....  .......................  ",
"........................  ....XX...............XX....  .......................  ",
"........................  ...........................  .......................  ",
"........................  ...........................  .......................  ",
"........................  ...........................  .......................  ",
"........................  ...........................  .......................  ",
"........................  ...........................  .......................  ",
"........................                               .......................  ",
"........................                               .......................  ",
"........................  ...........................  .......................  ",
"........................  ...........................  .......................  ",
"........................  ...........................  .......................  ",
"........................  ...........................  .......................  ",
"........................  ...........................  .......................  ",
"........................  ....XX...............XX....  .......................  ",
"........................  ....XX...............XX....  .......................  ",
"........................  ...........................  .......................  ",
"........................  ...........................  .......................  ",
"........................  ...........................  .......................  ",
"....XX............XX....  ...........................  .......................  ",
"....XX............XX....  ...........................  .......................  ",
"........................  ...........................  .......................  ",
"........................  ...........................  .......................  ",
"........................  ...........................  .......................  ",
"........................  ...........................  .......................  ",
"........................  ...........................  .......................  ",
"                          ...........................  .......................  ",
"                          ...........................  .......................  ",
"........................  ...........................  .......................  ",
"........................  ...........................  .......................  ",
"........................  ...........................  .......................  ",
"........................  ...........................  .......................  ",
"........................  ...........................  .......................  ",
"....XX............XX....  ...........................  .......................  ",
"....XX............XX....  ...........................  .......................  ",
"........................  ...........................  .......................  ",
"........................  ...........................  .......................  ",
"........................  ...........................  .......................  ",
"........................  ...........................  .......................  ",
"........................  ...........................  .......................  ",
"........................  ...........................  .......................  ",
"........................  ...........................  .......................  ",
"........................  ...........................  .......................  ",
"........................  ...........................  .......................  ",
"........................  ...........................  .......................  ",
"........................  ...........................  .......................  ",
"........................  ...........................  .......................  ",
"........................  ...........................  .......................  "
};
