/* XPM */
static char *_6112c60424b416ea2dc5a617d2a6551N5QUxvTDYgRQdoqP[] = {
/* columns rows colors chars-per-pixel */
"59 59 238 2 ",
"   c #020301",
".  c #0C0100",
"X  c #0B0E03",
"o  c #0C0C0C",
"O  c #050B01",
"+  c #130301",
"@  c #1D0201",
"#  c #1B0B00",
"$  c #160C0A",
"%  c #170B04",
"&  c #0E1005",
"*  c #1B130D",
"=  c #17190E",
"-  c #1B190D",
";  c #131313",
":  c #1B1B1B",
">  c #1B1D12",
",  c #210600",
"<  c #250B01",
"1  c #230E0B",
"2  c #2B0E09",
"3  c #2D1203",
"4  c #2B1B0B",
"5  c #231708",
"6  c #34190D",
"7  c #331808",
"8  c #2C0C13",
"9  c #2D0C19",
"0  c #221D18",
"q  c #341917",
"w  c #1F2116",
"e  c #2A220F",
"r  c #2A2615",
"t  c #25271C",
"y  c #29291D",
"u  c #2C231B",
"i  c #342414",
"p  c #382719",
"a  c #2E1220",
"s  c #341526",
"d  c #242424",
"f  c #2A2D23",
"g  c #2C2C2C",
"h  c #2F2523",
"j  c #3D2623",
"k  c #372C29",
"l  c #2E3126",
"z  c #2F3028",
"x  c #31352A",
"c  c #343A2E",
"v  c #38352C",
"b  c #343434",
"n  c #3A3431",
"m  c #393D32",
"M  c #3B3B3B",
"N  c #373B31",
"B  c #471700",
"V  c #4C2C02",
"C  c #4D2703",
"Z  c #5C2E04",
"A  c #56290A",
"S  c #563204",
"D  c #562A19",
"F  c #573818",
"G  c #4F3510",
"H  c #64330D",
"J  c #613406",
"K  c #673717",
"L  c #723D1D",
"P  c #401F32",
"I  c #412927",
"U  c #4D2D27",
"Y  c #432D2B",
"T  c #4E2E2A",
"R  c #592C26",
"E  c #562C28",
"W  c #4B312E",
"Q  c #423229",
"!  c #53322D",
"~  c #5E332C",
"^  c #5C3A2E",
"/  c #5B3727",
"(  c #433631",
")  c #4A3532",
"_  c #4C3A36",
"`  c #4C3D39",
"'  c #533533",
"]  c #5C3B34",
"[  c #523E3B",
"{  c #5A3B39",
"}  c #5A3834",
"|  c #422231",
" . c #612D22",
".. c #642D2A",
"X. c #682E2D",
"o. c #6C3923",
"O. c #62352E",
"+. c #6B332E",
"@. c #66382B",
"#. c #6D3A2C",
"$. c #663723",
"%. c #733C2B",
"&. c #6A2F35",
"*. c #653731",
"=. c #6D3331",
"-. c #633831",
";. c #6A3D37",
":. c #6A3F38",
">. c #6C353A",
",. c #713131",
"<. c #723B35",
"1. c #743A3B",
"2. c #7B3E3D",
"3. c #3F4136",
"4. c #5B411E",
"5. c #73471B",
"6. c #77531E",
"7. c #66401C",
"8. c #5F4427",
"9. c #43443B",
"0. c #4D423B",
"q. c #4E4938",
"w. c #51413D",
"e. c #554D3C",
"r. c #5C413B",
"t. c #5A523F",
"y. c #694728",
"u. c #754629",
"i. c #79572B",
"p. c #65443A",
"a. c #6C413A",
"s. c #654634",
"d. c #71453F",
"f. c #794636",
"g. c #745136",
"h. c #785239",
"j. c #6C5021",
"k. c #7D6132",
"l. c #5E3D56",
"z. c #434343",
"x. c #4B4C42",
"c. c #4C4C4C",
"v. c #474D41",
"b. c #554742",
"n. c #5A4542",
"m. c #524B43",
"M. c #5B4B46",
"N. c #554D4B",
"B. c #5B4F49",
"V. c #4E5045",
"C. c #4F5048",
"Z. c #505247",
"A. c #53554B",
"S. c #5C544D",
"D. c #56584D",
"F. c #5B594E",
"G. c #5A5445",
"H. c #535353",
"J. c #5A5C53",
"K. c #5B5B5B",
"L. c #5B5457",
"P. c #5F4956",
"I. c #624544",
"U. c #624845",
"Y. c #6C4A40",
"T. c #654C4A",
"R. c #684E4D",
"E. c #7C4341",
"W. c #754943",
"Q. c #764A45",
"!. c #615946",
"~. c #61544F",
"^. c #69504F",
"/. c #635D4C",
"(. c #7D534A",
"). c #654955",
"_. c #645651",
"`. c #6B5553",
"'. c #635C54",
"]. c #625A5B",
"[. c #6A5C59",
"{. c #63545D",
"}. c #745B59",
"|. c #5E6156",
" X c #5E6055",
".X c #5E6158",
"XX c #69614E",
"oX c #636057",
"OX c #646057",
"+X c #6B6553",
"@X c #62645A",
"#X c #6B625B",
"$X c #66695E",
"%X c #6E6B5C",
"&X c #776F5C",
"*X c #71635F",
"=X c #6A4E65",
"-X c #665B63",
";X c #735B6A",
":X c #785772",
">X c #626262",
",X c #606060",
"<X c gray40",
"1X c #636363",
"2X c #6B6B65",
"3X c #6B6B6B",
"4X c #6B6464",
"5X c #786764",
"6X c #72726C",
"7X c #7B766E",
"8X c #737373",
"9X c #7D7C7C",
"0X c #7A7875",
"qX c #786076",
"wX c #875D2C",
"eX c #814B37",
"rX c #855235",
"tX c #89653A",
"yX c #966C38",
"uX c #854B4A",
"iX c #854847",
"pX c #845949",
"aX c #9F7E48",
"sX c #A77948",
"dX c #857977",
"fX c #826D7C",
"gX c #A88751",
"hX c #81817F",
"jX c #B89666",
"kX c #D1AC77",
"lX c gray51",
"zX c #E2BF85",
"xX c #EECB91",
"cX c #FFDCA4",
"vX c #FFECB1",
"bX c #FFFCBF",
"nX c #FFE4AB",
"mX c #FFFCC1",
/* pixels */
"                o     ; o     ;                 O O   X t     f                                 :     ;     o         ",
"z.z.z.z.z.3.z.z.M d : g b g g M m m m m m m m m c m f N v.=   m x x x x x x x x c c c c c c c N z.: g c.b M c.M 3.3.z.",
"L.L.L.L.L.L.L.L.1XM d M L.K.K.K..X|.|.|.|.|.|.|.J.@XD.@X2Xl X 9.J.J.J.J.J.J.J.J.J.J.J.J.J.J.J.J.c.: b K.c.H.<XK.L.L.L.",
"H.H.H.H.H.H.H.H.8XM ; g K.<X>XK.A.A.A.A.A.A.A.A.J.$XJ.$X6Xl X m |.|.|.|.|.|.|.|.D.D.D.D.D.D.D.A.c.o d H.c.c.>XK.H.H.H.",
"K.K.K.K.L.L.L.L.3Xb o d L.<XK.H.x.x.x.x.x.x.x.x.x.F.Z.oX2Xl X 3.A.A.A.A.A.A.A.A.A.A.A.A.A.A.A.A.2X: g <XK.L.>XK.K.K.K.",
"L.L.L.L.H.H.H.H.3Xb ; b K.<XK.c.J.F.F.F.F.F.F.F.m.F.m.'.2Xv - m.S.S.S.S.S.S.S.S.oXoXoXoXoXoXoXoX8X: d <X>Xc.L.H.H.H.H.",
"H.H.H.c.c.c.c.c.<XM d z.K.>XH.c.oXOXOXOXOXOXOXOX'.OXm.J.%Xx - A.F.F.F.F.F.F.F.F.'.'.'.'.'.'.'.'.2X  o K.K.z.c.c.H.H.c.",
">X>X>X>X>X>X>X>XK.M g z.K.L.z.9.S.S.S.S.S.S.S.S.#X#Xm.B.'.u % m.S.S.S.S.S.S.S.S.m.m.m.m.m.m.m.m.6Xo ; 1X3XL.K.K.>X>X>X",
"L.L.L.L.L.L.L.K.K.b d z.K.K.<X9X#X#X[.'.'._.S.S.[.'._.S.M.b.0.0.~.~.~.~.~.~.~.~.4XM.5XdX*X5X7XM.K.d : c.<Xc.z.K.L.K.>X",
"z.z.z.z.z.z.z.z.H.g : M c.c.c.L.0.w.w.0.` ` ` _ b.b.w.0.` _ ( ( w.w.w.w.w.w.w.w.B.Q M._.` b._.( H.d ; z.K.z.b c.H.H.L.",
"                :     o : ;     . . . . . . . + + + + + + + + + + + + + + + + + % . . + . . 1 . d     ; d o   o : ; o ",
"z.z.z.z.z.z.z.z.K.c.z.H.K.c.g : k Y Y ( ) _ _ _ ) ) _ _ [ w.w.w.) ) ) ) ) ) ) ) n.j Y Y 1 q n._ 4Xc.M L.K.c.z.c.c.M d ",
"<X<X<X<X<X<X<X<X8X3X<X3X8X<Xz.0 M.M.U.T.^.`.`.`.U.U.T.^.`.`.}.}.U.T.U.T.U.T.U.T.5Xn.T.n.q ) 5X*XdX3X<X3X8X<XK.>X<Xc.g ",
"c.c.c.c.c.c.c.c.z.c.c.z.c.z.d   Y Y Y Y W W ) ) j j j I Y W ) ) I I I I I I I I r.j W j + 1 n.n.N.c.c.c.c.z.z.z.L.b o ",
"<X<X<X<X<X<X<X<X>X3X<X>X<X3Xc.0 _.^.^.R.R.T.T.T.U.U.U.T.T.T.R.R.R.R.R.R.R.R.R.R.}.U.}.R.q Y 5X5X4X3X3X<X>X<X<X<X9XL.d ",
"c.c.c.c.c.c.c.c.c.K.L.z.H.K.z.* [ { { ' ' W T T ' ' ' ' ' ' ' ' { { { { { { { ] I.! I.{ 1 q T.~.x.L.K.c.c.H.L.H.>Xb   ",
"K.K.K.K.K.K.K.K.K.<XK.z.K.9Xc.  W -.a.a.-.~ } -.-.-.-.-.-.-.-.] ] ] -.-.*.=.=.=.uX;.W.] @ < e.G.1X>XK.L.K.<X>XH.<XM o ",
"c.c.c.c.c.c.c.c.H.<XK.c.K.0Xc.. ! -.a.a.-.~ O.-.-.-.-.-.-.-.-.-.-.-.*.*.=.=.,.,.1...d.p.3 p +X%Xx.c.z.z.z.c.z.M <Xz.; ",
"8X8X8X8X8X8X8X8Xc.>XK.c.L.<Xz.$ ! -.a.a.-.~ O.-.-.-.-.-.-.-.-.-.-.-.*.*.=.=.,.,.=.R W.p.7 i !.F.6X8X0X8X<X<X<X3X<Xz.: ",
"d d d d d d d d g M b g b M d   ! -.a.a.-.~ O.-.-.-.-.-.-.-.-.-.-.-.*.*.=.=.,.,.2.+.Q.p., + p r g g b b g : d b M g o ",
"                : : ; o : d o   ! -.a.a.-.~ O.-.-.-.-.-.-.-.-.-.-.-.*.*.=.=.,.,.uX1.(.p.@ . e - o     ; o     ; : ; o ",
"H.H.H.H.H.H.H.H.H.b d g c.H.b + ! -.a.a.-.~ O.-.-.-.-.-.-.-.-.-.-.-.*.*.=.=.,.,.iX;.(.Y.3 5 q.q.Z.g g c.K.z.z.L.M M M ",
"L.L.L.L.L.L.L.L.lXH.b c.0XhXL.h ! -.a.a.-.~ O.-.-.-.-.-.-.-.-.-.-.-.*.*.=.=.,.,.2.X.W.p.3 i XX%XA.: ; z.<XL.c.L.<X<X3X",
"K.K.K.K.K.K.K.K.0XM ; b <X8Xz.$ ! -.a.a.-.~ O.-.-.-.-.-.-.-.-.-.-.-.*.*.=.=.,.,.1.R :.~ , 4 !.+X1Xd ; c.9X3XK.<XL.K.>X",
"H.H.H.H.H.H.H.H.c.z.  b >Xc.H.. ! -.a.a.-.~ O.-.-.-.-.-.-.-.-.-.-.-.*.*.=.=.,.,.uX+.a.] 3 i /./.@X    H.L.M z.z.H.c.c.",
"K.K.K.K.K..XK.K.K.H.o M 3XK.K.$ ! -.a.a.-.~ O.-.-.-.-.-.-.-.-.-.-.-.*.*.=.=.,.,.uX=.a.^ , 4 e.e.0X; : <X8XK.>X>X>X>X>X",
"c.c.c.c.c.c.c.c.>XH.o M 3XK.K.. ! -.a.a.-.~ O.-.-.-.-.-.-.-.-.-.-.-.*.*.=.=.,.,.iX+.a.] 3 i G.G.@Xo ; K.K.c.K.L.H.H.L.",
"K.K.K.K.K.K.K.K.<XK.o z.8X>XK.+ ! -.a.a.-.~ O.-.-.-.-.-.-.-.-.-.-.-.*.*.=.=.,.,.f...a.p.6 Q +X+XL.o : K.L.c.K.H.L.K.K.",
"<X<X<X<X<X<X<X<XK.L.; z.<Xc.H.. ! -.a.a.-.~ O.-.-.-.-.-.-.-.-.-.-.-.*.*.=.=.,.,.E...d.p.3 i e.q.@Xd b >XL.H.>XL.<X3X3X",
"d d d d d d d g d b   d b ; d   ! -.a.a.-.~ O.-.-.-.-.-.-.-.-.-.-.-.*.*.=.=.,.,.uX=.d.^ @ + r 5 b   ; b : : g : M b b ",
"o o o o o o o o : b o g d   :   ! -.a.a.-.~ O.-.-.-.-.-.-.-.-.-.-.-.*.*.=.=.,.,.iXX.d.] , # p r f   ; d o o :   : ;   ",
"L.L.L.L.L.L.L.L.c.8XH.<XK.g H.n ! -.a.a.-.~ O.-.-.-.-.-.-.-.-.-.-.*.*.=.+.+.+.+.<.R W.Y.q I ~.N.0XH.,X6Xc.c..Xz.H.z.g ",
">X>X>X>X>X>X>X>X>Xc.>X<XL.>XL.$ T a.d.~ R -.;.O.-.-.-.-.-.-.-.*.Q.1.=.=...D  .#.pXD T } 9 s ).{.-X>XK.K.K.K.K.K.<Xz.: ",
"L.L.L.L.L.L.L.L.H.z.L.K.c.L.c.. T a.d.~ R -.;.O.-.-.-.-.-.-.-.*.1.&.X.<.f.f.u.$.(.D ! { 9 a l.=XL.L.H.H.c.c.c.c.>XM ; ",
"K.K.K.K.K.K.K.K.K.c.,X<XH.K.H.% T a.d.~ R -.;.O.-.-.-.-.-.-.-.*.=.X...#.f.f.o.A g.D s.p.8 9 l.=X-XK.K.K.K.L.L.L.>XM o ",
"K.K.K.K.K.K.K.K.>Xc.>X<XL.>XL.$ T a.d.~ R -.;.O.-.-.-.-.-.-.-.*.+.<.%.D A A A C u.G s.p.2 8 ).;X-X>X>XK.K.K.K.K.<Xz.; ",
"H.H.L.L.L.L.H.H.K.z.K.>Xc.K.c.. T a.d.~ R -.;.O.-.-.-.-.-.-.-.@.D eXeXA B Z i.tXtXF y.s.3 6 R.5XK.K.L.L.H.H.H.c.8Xc.: ",
"K.K.K..XK.K.K.K.<XH.<X3XK.<XK.* T a.d.~ R -.;.O.-.-.-.-.-.-.-.@.A eXrXH Z yXkXxXjXi.y.8.3 6 T.[.4X<X1X>X>XK.K.K.<Xz.: ",
"H.H.H.H.H.H.H.H.K.c.K.<Xc.K.H.. T a.d.~ R -.;.O.-.-.-.-.-.-.-.@.A u.u.H wXkXnXcXcXgXi.4.3 7 { [ ].K.K.K.L.L.H.H.c.b ; ",
"d d d d d d d d g : g b d g d   T a.d.~ R -.;.O.-.-.-.-.-.-.-.@.K L H J sXcXvXxXmXkXk.F 3 3 U p k g g g d d d d b d o ",
"d d d d d d d d b b   ; g : g   U ~ ;.:.-.O.-.:.-.-.-.-.-.-.-.@.o.K Z B Z yXxXmXcXgXj.G 3 6 p . n     b g g M g g g g ",
"H.H.H.H.H.H.H.H.8XK.o b <XK.K.$ U ~ ;.:.-.O.-.:.-.-.-.-.-.-.-.@.o.L K J J 6.gXzXaXj.7.F 3 i U.[ ].; d K.L.H.>XL.>X>X>X",
"K.K.K.K.K.K.K.K.9XK.  b 8X<X1X. U ~ ;.:.-.O.-.:.-.-.-.-.-.-.-.@.$.%.u.5.H J 5.wXS V y.8.< 6 }.dX].; d K.L.H.>XL.<X<X<X",
"c.c.H.H.H.H.c.c.<Xc.  g >XL.H.  U ~ ;.:.-.O.-.:.-.-.-.-.-.-.-.@. .%.f.u.K Z Z S V V g.s., 2 ^.5XN.o : c.c.z.H.c.L.L.L.",
"K.K.K.L.L.L.L.L.K.K.; z.>Xc.L.$ U ~ ;.:.-.O.-.:.-.-.-.-.-.-.-.*. .+.#.o.K K K K y.F s.r.2 q ).).].: d K.K.H.>XK.H.H.H.",
"L.L.L.L.H.H.L.H.H.K.: c.>Xz.H.* U ~ ;.:.-.O.-.:.-.-.-.-.-.-.-.*.......$.o.u.u.h.g.F ^ ' 8 | =X{.-X: g .XK.L.>XK.c.c.c.",
"c.c.c.c.c.c.c.c.L.c.o M <Xc.c.. U ~ ;.:.-.O.-.:.-.-.-.-.-.-.-.*.>.&.X.+.#.u.u.y.h./ p.} 8 P :XqXL.; d L.H.c.K.H.c.c.c.",
"L.L.L.L.L.L.L.L.8XK.o z.hX6X@X  U ~ ;.:.-.O.-.:.-.-.-.-.-.-.-.*.>.>.=.;.<.#.$.D pXa.(.{ @ a ;XfX-X: g ,XK.L.<XK.>X>X>X",
"C.C.Z.Z.Z.Z.Z.Z.x.z t m A.C.N u ! -.:.;.O.~ -.;.-.-.-.-.-.-.-.-.-.*.*.=.+.+.+.+.<.+.(.Q.q p M.N.L.g d H.K.M M K.K.K.K.",
"= = = = = = = = t & O = f y &   ! -.:.;.O.~ -.;.-.-.-.-.-.-.-.-.-.-.*.*.=.=.,.,.iX=.(.p.@ + r r f     d g ; o g ; o   ",
"t t t t t t t t N f w y m N >   ! -.:.;.~ ~ -.;.-.-.-.-.-.-.-.-.-.-.*.*.=.=.,.,.iX;.Q.-.+ . e 0 n ; ; x M d : b b :   ",
" XJ.|.|.J.J.J.J.@X|.A.A.@X$X9.* ! -.:.;.~ ~ -.;.-.-.-.-.-.-.-.-.-.-.*.*.=.=.,.,.2.+.Q.p.3 4 e.m.$Xc.z.K.<XL.H.K.0XL.g ",
"@X@X@X@X@X@X@X@XJ.@XF.Z.|.$X9.+ ! -.:.;.~ ~ -.;.-.-.-.-.-.-.-.-.-.-.*.*.=.=.,.,.1...W.p.6 p +X%X2XL.H.K.<XK.K.K.<Xz.; ",
"Z.Z.Z.Z.Z.Z.Z.Z.x.J.A.9.A.$Xm   ! -.:.;.~ ~ -.;.-.-.-.-.-.-.-.-.-.-.*.*.=.=.,.,.2...d.-.< 4 !.'.$XK.H.L.K.K.L.H.>Xb   ",
"A.A.A.A.A.A.A.A.x.oX|.x.J.6Xx.. ! -.;.;.~ ~ -.;.-.-.-.-.-.-.-.-.-.-.*.*.=.=.,.,.E.+.d.] , 5 t.F.2X<XK.K.K.<XK.H.0Xz.; ",
"F.J.J.J.J.J.J.J.9.|.|.x.J.7XV.. ! -.:.;.~ ~ -.;.-.-.-.-.-.-.-.-.-.-.*.*.=.=.,.,.2...d.] < i XX%X@X>XK.H.L.K.L.c.3XM o ",
"A.A.A.A.A.A.A.A.$Xx.J.@XA.@XV.  U a.d.~ R -.;.O.-.-.-.-.-.-.-.-.-.-.*.*.=.=.,.,.<.E.~ Y.6 # &XF.K.K.K.K.L.L.H.H.<XM ; ",
"A.A.A.A.A.A.A.A.$Xx.J.@XA.@XV.  U a.d.~ R -.;.O.-.-.-.-.-.-.-.-.-.-.-.*.=.=.,.,.<.E.~ Y.6 # &XF.K.K.K.K.L.L.H.H.<XM ; ",
"A.A.A.A.A.A.A.A.$Xx.J.@XA.@XV.  U a.d.O.R -.;.O.-.-.-.-.-.-.-.-.-.-.-.*.=.=.,.,.<.E.~ Y.7 # &XF.K.K.K.K.L.L.L.H.<XM ; "
};
