/* XPM */
static char *_f830fb6d1bf4ccadab62c46582820f8kupQwPgu2f3MgEvw[] = {
/* columns rows colors chars-per-pixel */
"59 59 252 2 ",
"   c #060001",
".  c #0D0100",
"X  c #06000B",
"o  c #0D010A",
"O  c #090C00",
"+  c #130002",
"@  c #150B03",
"#  c #1B0C02",
"$  c #12010C",
"%  c #19020A",
"&  c #110A0A",
"*  c #1B0202",
"=  c #131500",
"-  c #1B1403",
";  c #1D1B0B",
":  c #181706",
">  c #0D0514",
",  c #150212",
"<  c #1C0314",
"1  c #140914",
"2  c #1B0B14",
"3  c #14031A",
"4  c #1E051A",
"5  c #160B1A",
"6  c #1C0C1C",
"7  c #1C131D",
"8  c #1B1815",
"9  c #0E1600",
"0  c #230301",
"q  c #220C02",
"w  c #260808",
"e  c #271908",
"r  c #391809",
"t  c #230C14",
"y  c #230319",
"u  c #230D1E",
"i  c #2B0617",
"p  c #24131B",
"a  c #2C141D",
"s  c #281714",
"d  c #35191A",
"f  c #1E2306",
"g  c #1E2219",
"h  c #262707",
"j  c #34250C",
"k  c #272617",
"l  c #372918",
"z  c #3B3618",
"x  c #2C3017",
"c  c #190A25",
"v  c #1E1422",
"b  c #1D1828",
"n  c #1C0B33",
"m  c #1C1637",
"M  c #0D0631",
"N  c #260C23",
"B  c #2B0E22",
"V  c #250A2A",
"C  c #320D23",
"Z  c #360E29",
"A  c #231424",
"S  c #2C1425",
"D  c #241B25",
"F  c #2B1B23",
"G  c #2F1629",
"H  c #251C2B",
"J  c #2B1C2B",
"K  c #23132C",
"L  c #321B23",
"P  c #32162A",
"I  c #3B152C",
"U  c #331A2D",
"Y  c #3C1B2E",
"T  c #3A1C24",
"R  c #251B33",
"E  c #2C1D33",
"W  c #25163B",
"Q  c #271836",
"!  c #361D31",
"~  c #3C1D32",
"^  c #3A1D3A",
"/  c #331836",
"(  c #340839",
")  c #1F212D",
"_  c #23232B",
"`  c #2C212E",
"'  c #282625",
"]  c #362129",
"[  c #3C252D",
"{  c #382926",
"}  c #37332B",
"|  c #2D2232",
" . c #2C223A",
".. c #2B2A3D",
"X. c #282535",
"o. c #322534",
"O. c #3B2335",
"+. c #342935",
"@. c #3E2933",
"#. c #34243C",
"$. c #3F2639",
"%. c #352A3A",
"&. c #3B2C3B",
"*. c #3C333C",
"=. c #3B3735",
"-. c #48180B",
";. c #501B13",
":. c #44381A",
">. c #4B2D16",
",. c #451927",
"<. c #441C34",
"1. c #401F3A",
"2. c #452829",
"3. c #473826",
"4. c #583B29",
"5. c #432C35",
"6. c #432539",
"7. c #4A223A",
"8. c #442B3D",
"9. c #4A2A3E",
"0. c #462634",
"q. c #51273F",
"w. c #512D31",
"e. c #473038",
"r. c #4A333B",
"t. c #463836",
"y. c #563432",
"u. c #643929",
"i. c #733D28",
"p. c #642917",
"a. c #484727",
"s. c #57452C",
"d. c #4B443B",
"f. c #56473C",
"g. c #575339",
"h. c #68422A",
"j. c #74452C",
"k. c #664735",
"l. c #78543C",
"z. c #724F38",
"x. c #6C5522",
"c. c #1D0C43",
"v. c #2A1944",
"b. c #2A1946",
"n. c #310E45",
"m. c #262447",
"M. c #3C2642",
"N. c #332C43",
"B. c #3B2C44",
"V. c #3C2E4A",
"C. c #332447",
"Z. c #3C3147",
"A. c #352654",
"S. c #393652",
"D. c #431B48",
"F. c #471C51",
"G. c #452D41",
"H. c #4A2E42",
"J. c #462848",
"K. c #532D44",
"L. c #572947",
"P. c #423543",
"I. c #4B3245",
"U. c #4D3942",
"Y. c #42334B",
"T. c #4E3649",
"R. c #463A4B",
"E. c #4B3B4B",
"W. c #443944",
"Q. c #533146",
"!. c #523C44",
"~. c #50374A",
"^. c #533A4D",
"/. c #5B3A4F",
"(. c #5D344C",
"). c #4D2653",
"_. c #552D57",
"`. c #473853",
"'. c #563D52",
"]. c #563858",
"[. c #61374F",
"{. c #613E55",
"}. c #5B3961",
"|. c #623E64",
" X c #4C434C",
".X c #5B444C",
"XX c #564746",
"oX c #5D4455",
"OX c #554656",
"+X c #5A5355",
"@X c #54514A",
"#X c #6C5A49",
"$X c #624A53",
"%X c #61455B",
"&X c #634A5D",
"*X c #685457",
"=X c #765E5C",
"-X c #765847",
";X c #746658",
":X c #746B4B",
">X c #5C4360",
",X c #674D66",
"<X c #6B5566",
"1X c #735968",
"2X c #6B5271",
"3X c #725772",
"4X c #776A68",
"5X c #746575",
"6X c #77726C",
"7X c #825039",
"8X c #885B4B",
"9X c #90724A",
"0X c #826B76",
"qX c #877878",
"wX c #8D776B",
"eX c #976663",
"rX c #A89036",
"tX c #9E8949",
"yX c #AB9157",
"uX c #8F8874",
"iX c #B49771",
"pX c #C3B058",
"aX c #C99B6C",
"sX c #CBB074",
"dX c #E0B264",
"fX c #DBC861",
"gX c #E3C676",
"hX c #7F6580",
"jX c #8F7583",
"kX c #8C7288",
"lX c #98868C",
"zX c #9A9380",
"xX c #9C9197",
"cX c #968B99",
"vX c #AC9491",
"bX c #B3A790",
"nX c #B8ACAE",
"mX c #E4B984",
"MX c #C8B4AA",
"NX c #D6B78B",
"BX c #FFD698",
"VX c #EDD187",
"CX c #CEC2AF",
"ZX c #F8E8AC",
"AX c #E7DB9A",
"SX c #F2DDDC",
"DX c #E4D3D4",
"FX c #FAE3DF",
"GX c #FCF8D0",
"HX c #FFEDEA",
"JX c #FFFDEB",
"KX c #FFF8F9",
/* pixels */
"$.$.$.$.$.$.$.$.$.$.$.$.$.$.$.6.<.K.C i q.q.I K.7.7.7.7.7.7.7.7.7.L.<.7.[.I % <.<.<.(.[.<.i Z (.0.[ 5.r..X!.[ p 5.L % ",
"$.$.$.$.$.$.$.$.$.$.$.$.$.$.$.6.<.K.C i q.9.I K.7.7.7.7.7.7.7.7.7.K.<.7.[.I % I (.9.7.K.q.I <.Q.T [ 5.e.5.5.5.r.5.L % ",
"$.$.$.$.$.$.$.$.$.$.$.$.$.$.$.6.<.K.C y 9.9.I K.7.7.7.7.7.7.7.7.7.Q.<.7./.I % Y {.<.I 7.K.7.<.0.T 5.e.[ p t [ !.5.L % ",
"$.$.$.$.$.$.$.$.$.$.$.$.$.$.$.6.~ K.C y 9.9.I K.7.7.7.7.7.7.7.7.7.Q.<.7./.I % Y 7.I <.K.K.~ Z I 5.5.5.[ a p a L 5.L 2 ",
"$.$.$.$.$.$.$.$.$.$.$.$.$.$.$.6.~ H.C y 9.9.I Q.7.6.7.6.7.6.7.6.7.Q.<.7./.P % Y B ~ {.1X{.I C ~ r.[ L 5..X$Xe.a e.L t ",
"$.$.$.$.$.$.$.$.$.$.$.$.$.$.$.6.~ H.B y 9.9.I Q.6.6.6.6.6.6.6.6.6.Q.6.6./.P $ Y P H.1XjX,X6.~ Q.5.L L !.0XjX1Xr.e.[ t ",
"$.$.$.$.$.$.$.$.$.$.$.$.$.$.$.$.~ H.B y 9.8.U I.6.6.6.6.6.6.6.6.6.Q.O.6./.P $ Y 9.H.oX<X%X6.O.I.5.] L e.*X1X$XU.r.[ t ",
"$.$.$.$.$.$.$.$.$.$.$.$.$.$.$.$.~ H.S 4 8.8.U I.$.$.$.$.$.$.$.$.$.T.O.$.^.P $ U ^.O.P $.G.O.! $.r.5.] L L [ [ L r.[ t ",
"$.$.$.$.$.$.$.$.8.8.8.8.8.8.8.8.8.8.G u U T.I.U 8.8.I.T.T.T.T.I.u u u u u u u u $.I.T.8.O.$.I.~.oX@.[ .X$Xe.[ e.L t . ",
"$.$.$.$.$.$.$.$.8.8.8.8.8.8.8.8.&.&.J u U I.P.S A A J J U J J J A A A A A A A A 1 u A u u A A p L % % L L t t L L t + ",
"$.$.$.$.$.$.$.$.8.8.8.8.8.8.8.8.+.+.J A o.I.&.6 , , 5 6 6 6 6 5 J J J J J J J J , o o 1 6 6 5 , 2 + % t t + t ] L t + ",
"$.$.$.$.$.$.$.$.8.8.8.8.8.8.8.8.+.+.J A o.P.+.5 6 7 A D J H A A ` ` ` ` ` ` ` ` +.v 5 H +.+.o.+.] [ [ [ L a [ e.[ p + ",
"$.$.$.$.$.$.$.$.8.8.8.8.8.8.8.8.&.%.J 7 J *.o.1 D H ` o.+.+.o.| | | | | | | | | P.H A %.W.%.*. Xr.!.U.5.[ [ 5.5.@.a % ",
"$.$.$.$.$.$.$.$.8.8.8.8.8.8.8.8.P.&.D 1 v %.| 5 v A H ` | | ` J ` ` ` ` ` ` ` ` D 5 H R.W.H `  X@.5.5.[ 5.r.5.p 5.L % ",
"$.$.$.$.$.$.$.$.8.8.8.8.8.8.8.8.E.B.v X 1 | | 7 5 7 v D H H D D H H _ H H H H H X > R.5X<X` v E.] [ [ [ .X1X.Xp e.L t ",
"$.$.$.$.$.$.$.$.8.8.8.8.8.8.8.8. X*.7   X ` o.v 7 v b H R R H R R R R R R H H H X v 5XnXcXW.`  X@.5.5.!.0XxX0X5.e.] t ",
"$.$.$.$.$.$.$.$.8.H.T.T.H.O.S 6 8 8 g ' ' ' _ _ X... .m M m m.A.b.b.b.v.W W W K #.#.+.| J p 7 1 t L 5.e.5.[ [ [ 5.L % ",
"$.$.$.$.$.$.$.$.$.8.G.G.8.U N 2 8 8 g k ' ' _ ) ......m.m.m.c.M c.c.c.v.b.b.C.C.K K A v 2 1 o . t L 5.e.5.[ [ [ 5.L % ",
"$.$.$.$.$.$.$.$.O.$.8.8.O.U N 2 7 8 g ' ' ' _ _ ..X.X.N.S.S.m M A.A.A.b.v.W n n  . .E J D A p p p L 5.e.5.[ [ [ 5.L % ",
"$.$.$.$.$.$.$.$.6.8.8.8.$.! G A 7 v _ _ _ _ _ _ ..b b ..N.X...V.C.A.C.b.b.W W K N.#.o.| ` ` ` ] a [ 5.e.5.[ [ 5.5.L % ",
"$.$.$.$.$.$.$.$.I.I.I.H.8.6.O.o.v b H _ _ _ _ _ %._ b b 1   7  Xc n n v.C.V.`.`.K A v 6 6 7 D J L [ 5.5.5.[ 5.e.5.L % ",
"$.$.$.$.$.$.$.$.T.T.I.I.G.8.8.G.b m R X.X.X._ H *.' ' } k     ' N.C.C.C.C.E E E E H A v A J o.&.] @.5.5.@.[ 5.r.5.L % ",
"$.$.$.$.$.$.$.$.I.I.G.8.8.8.8.G.n m Q E  .X.H H =.8 } 6XuX@X; @ OX`.Y.M.E K 5 3 %.+.J J | &.W. X[ 5.5.5.[ [ e.!.5.L % ",
"$.$.$.$.$.$.$.$.8.8.$.O.O.O.$.&.n W Q E E E J J ' & t.MXJXCXg.; 7 A H | %.Z.R.E.H A 6 5 v J &.W.@.5.e.5.[ [ e.!.5.F % ",
"$.$.$.$.$.$.$.$.O.6.8.8.O.G 4 , > Y.Y.c c 6 o p { @ d.zXuXuXCXFXxXX X &.7 &.xXnX,XA X D +.c A R.@.5.5.5.5.e.e.e.[ a % ",
"$.$.$.$.$.$.$.$.O.6.8.G.6.U B 4 3 Y./ 3 $.8.p p t.# s 3.e l #X4XqX& o '   1 5XqX6XW.D +.| X X 5 @.5.5.5.5.8.e.e.[ a % ",
"$.$.$.$.$.$.$.$.O.6.8.H.G.$.! P , J u @.jXlXr.t { # # . . e 3.e t.  2 8     U.F +.$ X H E 3 > A @.5.5.5.5.e.e.e.[ a % ",
"$.$.$.$.$.$.$.$.$.6.8.I.I.G.8.$.. + t =XSXHXwX{ s # q + q wXbX;X-   e s   t.6X'   X X | Y.B.Z.OX@.5.5.5.5.e.e.e.[ a % ",
"$.$.$.$.$.$.$.$.$.8.8.G.I.I.H.e.+ + * #XFXJXMXqXy.{ t . d MXKXFX3.. - - @ uXDXlXp J &.OXOXR.Y.R.@.5.5.5.5.e.e.e.[ a % ",
"$.$.$.$.$.$.$.$.8.8.8.8.8.8.8.e.3.j + l vXMXMXCXvX=Xd + + lXKXHXf.  .     ;XDXnX2 D *.R.P.#.E | @.5.5.5.5.e.e.e.[ a % ",
"$.$.$.$.$.$.$.$.G.8.8.$.$.6.8.5.s.:.q q s.k.;XMXFXvX*Xt + 9.kX4Xl   - e   : 4X+X  o D +.E E #.o.@.5.5.5.5.e.e.e.[ a % ",
"$.$.$.$.$.$.$.$.G.8.6.O.O.O.O.[ l 3.j e j # q ;XJXMXvX=Xs 0 0 + . . :XuXe . # . s @.^.E.G.M.M.M.@.5.5.5.5.e.e.e.[ a % ",
"$.$.$.$.$.$.$.$.8.8.8.8.8.8.8.8.r.{ a } XX@Xg.a.bXAXZXsX9XtXaXsXrXpXsXyXtXyXiXiXk.2.Y Q.).n.D.}.8.5.5.5.5.5.5.5.[ a % ",
"$.$.$.$.$.$.$.$.8.8.8.8.8.8.8.8.&.A $ & 8 k f 9 f :XNXZXBXBXgXdXBXfXrXpXZXGXNXh.4.,.I J.D.( n.F.G.5.5.5.5.5.5.5.[ a % ",
"$.$.$.$.$.$.$.$.8.8.8.8.8.8.8.8.oX5.p & : ; : = = :.l.9XiXmXBXBXgXVXVXVXVXsX8X-.y.w.9._._.F.F.).G.5.5.5.5.5.5.5.[ a % ",
"$.$.$.$.$.$.$.$.8.8.8.8.8.8.8.8.<X!.] p 8 k k k a.z # + r j.eXaXx.tXsXyX>.* q >.w.0.H._._._._._.8.5.5.5.5.5.5.5.[ a % ",
"$.$.$.$.$.$.$.$.8.8.8.8.8.8.8.8.e.{ s # : ; g g k : # q r -.-.-.9X4.q 0 r >.d 0 i C P Z / D.).J.8.5.5.5.5.5.5.5.[ a % ",
"$.$.$.$.$.$.$.$.8.8.8.8.8.8.8.8.s e s s k k k k k ; s { w.2.,.,.HXwXq + 2.y.T * Y 6.1.Z / )._.J.8.5.5.5.5.5.5.5.[ a % ",
"$.$.$.$.$.$.$.$.8.8.8.8.8.8.8.5.w d 3.f.XXd.=.} @X} p S C Z L.0XDXvX$X2.t $ u G.<X3X%X^ ^ ~.}.~.8.5.5.5.5.5.5.5.[ a % ",
"$.$.$.$.$.$.$.$.8.8.8.8.8.8.8.5.0 r s.#X#XXX=.' *.| | $.P 4 V L.%X! 4 u 4 4 G.3XhXkX,X/ V ^ J.^ 8.5.5.5.5.5.5.5.[ a % ",
"8.$.$.8.T.I.8.! G.H.I.I.8.O.P a >.h.z.4.e e =.<X=.X X M.].D.( D.].J.M.Q V ].2XM.2X,X>X].Y.M.^ ! 8.5.5.5.5.5.5.5.[ a % ",
"T.8.$.6.H.I.H.8.O.$.8.6.O.P u w k.l.8Xk.l j } @X+X+.&.5XkX2X].|.2X,XB.3 c ^ / K / / / #.M.B.J.G.5.5.5.5.5.5.5.5.[ a % ",
"8.O.U U O.6.$.O.$.$.8.8.O.U N w 8X8Xl.k.:.l l } ' 8 D +X3X'.^ ^ T.3X#.o B.Y.E OXc V K E M.Y.`.E.5.5.5.5.5.5.5.5.[ a % ",
"G.8.8.I.~.~.G.O.I.T.T.T.I.$.U d 8X7Xj.u.4.:.k ; O     ' 5.F < < , +X2 X W.H X +.B.B.B.V.Y.Y.Y.Y.5.5.5.5.5.5.5.5.[ a % ",
"^.'.&X1X5X1XoXH.I.T.~.~.I.8.! d l.j.j.h.k.s.:.x x f ; x } { { 5.*XnX4Xd.qX=.  `  X X`.`.Y.Y.V.B.5.5.5.5.5.5.5.5.[ a % ",
"8.G.^.%X,X%XI.! 8.8.H.G.8.! S i u.i.j.l.-X#Xg.a.h h f f h j z 3.#XzX6X;XuXd.. =.&.&.B.V.V.V.V.Y.5.5.5.5.5.5.5.5.[ a % ",
"$.O.! O.8.8.O.U 8.G.I.I.8.O.G i ;.p.j.z.z.g.s.a.O 9 9 9 = - e h     O : =     & | +.%.N.N.V.V.V.8.5.5.5.5.5.5.5.[ a % ",
"&X^.8.O.8.~.'.'.~.^.^.^.T.8.O.T 0 -.u.h.4.:.z z : x z z z :.:.z a.e l 3.-   s ' W.W.P.Z.B.B.C.#.5.5.5.5.5.5.5.5.[ a % ",
"O.$.8.8.8.8.$.O.8.G P I.T.O.O.^.d d w.$XXXd s 2.. { XXf.2.{ { l % 5..XXX5.@.[ F 8.8.8.G.G.G.G.G.8.5.5.5.5.5.5.5.[ a % ",
"$ $ $ $ $ $ $ $ u $ o < < o o $ t + % a a + + t p r.$Xr.L a p 2 S < G T.G.4 , G 8.8.8.8.8.8.8.8.5.5.5.5.5.5.5.5.[ a % ",
"P S S B B S S P N < 4 P U S G $.5.t + t a a p a . L 5.L a [ 5.5.I.o o I.T.$ o ! 8.8.8.8.8.8.8.8.5.5.5.5.5.5.5.5.[ a % ",
"^.~.I.I.I.I.~.^.T.I.I.~.^.T.~.^..X[ t a e.!.5.L + a [ a a 5.!.!.oXG 4 $.I.P u U 8.8.8.8.8.8.8.8.5.5.5.5.5.5.5.5.[ a % ",
"$.O.O.~ ~ O.O.$.^.^.T.$.U S u < e.L % p e..X[ + !..X!.] p L L p T.'.8.u G ^.I.4 8.8.8.8.8.8.8.8.5.5.5.5.5.5.5.5.[ a % ",
"8.8.I.I.I.I.8.8.! 8.G.$.8.^.'.T.@.L t p e..X5.+ r.!.U.[ L [ [ S S oX^.$ $ T.I.o 8.8.8.8.8.8.8.8.5.5.5.5.5.5.5.5.[ a % ",
"^.oX,X<X<X,XoX^.S 8.~.T.%X0XkX0Xr.e.L p [ .Xr.a t L L F [ !.!.5.S T.T.S < P P , 8.8.8.8.8.8.8.8.5.5.5.5.5.5.5.5.[ a % ",
"U 6.~.oXoX~.6.U $.^.^.$.$.^.^.O.8.5.a + % 5.e.L L [ [ L L 5.[ t $.$.G.T.! < < U 8.8.8.8.8.8.8.8.5.5.5.5.5.5.5.5.[ a % ",
"8.8.8.8.8.8.8.8.8.8.8.8.8.8.8.8.!.[ a L 5.r.e.5.5.5.5.5.5.5.5.8.O.I.~ $.'.U , O.8.8.8.8.8.8.8.8.8.5.5.5.5.5.5.5.[ a % ",
"8.8.8.8.8.8.8.6.8.8.8.8.8.8.8.8.r.[ p a [ e.5.[ 5.5.5.5.5.5.5.5.O.H.! O.'.U $ O.8.8.8.8.8.8.8.8.5.5.5.5.5.5.5.5.[ a % ",
"O.O.O.O.O.O.O.O.O.O.O.O.O.O.O.O.8.L t t L 5.5.] [ [ [ [ [ [ [ [ U G.! O.^.P $ ! O.O.O.O.O.O.O.O.[ [ [ [ [ [ [ [ [ a % "
};
