/* XPM */
static char *_f578c943ad348bcad9850749d3ea356kE3XGs7viPHczTvz[] = {
/* columns rows colors chars-per-pixel */
"53 54 227 2 ",
"   c #020203",
".  c #0B0301",
"X  c #010806",
"o  c #0C0D03",
"O  c #01040C",
"+  c #030E0B",
"@  c #0B0B0B",
"#  c #1B0000",
"$  c #160C05",
"%  c #16070C",
"&  c #1B0C08",
"*  c #0A1306",
"=  c #00100A",
"-  c #081207",
";  c #16150B",
":  c #020111",
">  c #020C14",
",  c #0B0916",
"<  c #1C0B11",
"1  c #100F17",
"2  c #0F1C19",
"3  c #131313",
"4  c #191315",
"5  c #1D1B14",
"6  c #15141B",
"7  c #1C1519",
"8  c #1C1C1C",
"9  c #131D17",
"0  c #240101",
"q  c #2A0104",
"w  c #2D090B",
"e  c #320A0D",
"r  c #31070B",
"t  c #281A0F",
"y  c #23150A",
"u  c #221216",
"i  c #25151A",
"p  c #211C1C",
"a  c #2A191E",
"s  c #291B16",
"d  c #361A1A",
"f  c #381316",
"g  c #1A2316",
"h  c #17241C",
"j  c #202117",
"k  c #24231D",
"l  c #2B261D",
"z  c #34261B",
"x  c #332316",
"c  c #0F1E21",
"v  c #1C1C23",
"b  c #1D1B2A",
"n  c #131C25",
"m  c #1E1F33",
"M  c #1E1E38",
"N  c #211D25",
"B  c #281E26",
"V  c #211E34",
"C  c #211C3C",
"Z  c #1B252D",
"A  c #1A292B",
"S  c #1D2927",
"D  c #1E2332",
"F  c #232323",
"G  c #2B2524",
"H  c #2D2A22",
"J  c #24232A",
"K  c #28242C",
"L  c #2A2A2A",
"P  c #322429",
"I  c #34292D",
"U  c #3A2C2B",
"Y  c #372922",
"T  c #2B3628",
"R  c #283325",
"E  c #33312A",
"W  c #3B342C",
"Q  c #242332",
"!  c #282632",
"~  c #2A2838",
"^  c #2A3632",
"/  c #293A34",
"(  c #2D3E38",
")  c #333434",
"_  c #3C3336",
"`  c #3C3638",
"'  c #3B3B3B",
"]  c #393C35",
"[  c #372E31",
"{  c #431B1E",
"}  c #462A29",
"|  c #452425",
" . c #552C2C",
".. c #5D2A2E",
"X. c #453223",
"o. c #4E3B2B",
"O. c #4A3625",
"+. c #523C2C",
"@. c #503927",
"#. c #5A2D31",
"$. c #463A35",
"%. c #443B3E",
"&. c #4B3C3B",
"*. c #493735",
"=. c #593938",
"-. c #612E32",
";. c #682D31",
":. c #653336",
">. c #6E3337",
",. c #6C3439",
"<. c #633B3C",
"1. c #68383C",
"2. c #72373C",
"3. c #74393D",
"4. c #64292D",
"5. c #364234",
"6. c #38423B",
"7. c #55402F",
"8. c #4B443C",
"9. c #424C3F",
"0. c #45453D",
"q. c #564234",
"w. c #5A4433",
"e. c #5F4836",
"r. c #54443A",
"t. c #5D473A",
"y. c #614C3E",
"u. c #654538",
"i. c #211A43",
"p. c #3E3E40",
"a. c #6F3D40",
"s. c #763B41",
"d. c #7A3F45",
"f. c #3A4642",
"g. c #444444",
"h. c #4B4445",
"j. c #4B4D42",
"k. c #494748",
"l. c #444F4B",
"z. c #4C4C4C",
"x. c #434E40",
"c. c #534443",
"v. c #5D4342",
"b. c #544A43",
"n. c #53464A",
"m. c #534B4E",
"M. c #5D4C4B",
"N. c #455143",
"B. c #43514C",
"V. c #4F504C",
"C. c #4E594C",
"Z. c #4F5146",
"A. c #505147",
"S. c #53554A",
"D. c #5B534C",
"F. c #525A4E",
"G. c #585A4F",
"H. c #4C5552",
"J. c #4D5A55",
"K. c #4E5F59",
"L. c #455650",
"P. c #535353",
"I. c #5C5452",
"U. c #535B54",
"Y. c #5B5C52",
"T. c #555C59",
"R. c #595959",
"E. c #5A5A5A",
"W. c #585A59",
"Q. c #5D5D5D",
"!. c #5E5E5E",
"~. c #5C5C5C",
"^. c #564D50",
"/. c #634C43",
"(. c #634B4B",
"). c #654A49",
"_. c #734145",
"`. c #7A474B",
"'. c #655143",
"]. c #62534E",
"[. c #655553",
"{. c #635952",
"}. c #645D5E",
"|. c #6B5D59",
" X c #6B5755",
".X c #775958",
"XX c #4F605A",
"oX c #546052",
"OX c #5E6156",
"+X c #54635E",
"@X c #5B635C",
"#X c #5D695B",
"$X c #636459",
"%X c #69625A",
"&X c #70615C",
"*X c #695E62",
"=X c #5B6A64",
"-X c #5B6662",
";X c #616161",
":X c #636363",
">X c #626061",
",X c #656565",
"<X c #666666",
"1X c #646464",
"2X c #6C6265",
"3X c #636D62",
"4X c #6B6A60",
"5X c #696969",
"6X c #6D6D6D",
"7X c #6B6B6B",
"8X c #726462",
"9X c #716569",
"0X c #776A69",
"qX c #6B7266",
"wX c #7E716B",
"eX c #717171",
"rX c #727272",
"tX c #727272",
"yX c #7C7C7C",
"uX c #7D7276",
"iX c #796E72",
"pX c #804E4F",
"aX c #845659",
"sX c #836867",
"dX c #887775",
"fX c #80887B",
"gX c #838383",
/* pixels */
"                7     7     @                     F 3         3                 @     @     3     X X @ X ",
") ) ) ) ) ) ) ) ] 3 L g.L F ] L ] ] ] ] ] ] ] ] L z.) 3 L ) L ' F F F F 8 F 8 8 g.L ' g.8 L g.) ) ) ] ] ] ",
"!.!.!.!.!.!.!.!.z.F g.<Xz.z.:XP.:X:X:X:X:X:X:X:X!.eXg.F z.:XP.!.eXeXeXeXeXeXeXeX2XP.6X<XL ) <X<X!.!.:X<X<X",
":X:X:X:X:X:X:X:X' 7 ' :Xz.z.<XE.E.E.E.E.E.E.E.E.6X6XL 3 k.5XE.E.P.P.P.P.P.P.z.z.!.P.6XP.3 3 P.<XE.!.:X<X<X",
"E.E.E.E.E.E.E.E.L @ L E.k.k.!.P.z.z.z.z.z.z.z.z.<X!.7   ' <XP.P.k.k.k.k.k.k.k.k.P.k.:Xk.  X k.:Xk.k.P.P.P.",
"!.!.!.!.!.!.!.!.L @ ) :XP.P.<XP.E.E.E.E.E.E.E.E.!.!.8   g.<XP.P.eXeXeXeXeXeXeXeXE.P.5XP.3 7 E.6Xg.z.P.P.E.",
":X:X:X:X:X:X:X:X] 7 g.eX:X!.6X!.!.!.!.!.!.!.!.!.P.:XL 3 k.<XE.:Xz.z.z.z.z.z.z.z.E.z.<XE.F L <X6XP.P.!.,X5X",
"!.!.:X:X:X:X:X:X' F k.yX<X:XeX!.V.V.P.P.P.P.P.P.z.:X) 7 k.:XP.<X!.!.!.!.!.!.!.!.z.' P.P.8 L !.!.E.!.<X6XeX",
"z.z.P.P.P.E.!.!.3 ) z.E.!.<X5X:XE.!.:X:X:X!.E.E.T.g.) ) g.P.P.P.:X:X:X:X:X:X:X:X<XeX:X] F ] P.:XP.P.E.!.!.",
"X @ @ @ @ 3 3 3   3 F L F 8 7 3 8 F F F F F F F F 3     @ 8 8 8 7 4 4 4 7 7 6 7 3 L ) 3   @ 8 8 @ @ @ @ @ ",
"F F F F L L L L F L ) ) 8 @     @ @ @ @ @ @ @ @ @         X @ @                   F ' ) F L L F 8 F F 8 @ ",
"<X<X<X<X<X<X<X5X<X:X<X:Xk.F 3 8 @ @ @ @ X X @ @ @ @       @ @ @ @ @ @ @ @ @ @ @ F z.6X5X!.:X!.P.E.:X,XP.] ",
"E.E.E.E.E.E.E.E.rX<X<X5XP.L 8 ) 3 @ X                                           8 g.:X!.P.!.:X!.z.E.E.g.8 ",
"P.P.P.z.z.z.k.k.eXE.E.5XP.L F ' L F 3 @             @                           3 ) z.g.' k.P.P.g.P.P.] 3 ",
"<X<X:X:X!.E.E.E.eXP.P.5XE.L F k.P.g.) 8 3 @ @ @ X 3 3 3 X     @ @ @ @ @ @ @ @ @ 3 g.!.E.P.P.E.P.P.5X6XP.F ",
"W.W.T.P.P.V.z.z.6Xk.k.:Xm.8 8 g.I.h.E 5 o         X @ @         X X X X X X X X 7 k.eXeX<X<X:XP.z.:X<Xk.7 ",
"J.J.J.J.U.U.P.P.6X}.2XuX*X` I *.&.o.o.X.Y t $ . . . @ X             X X X X     F R.gXyX5X<X:XP.z.P.z.) 3 ",
"K.K.K.T.T.T.W.E.z._ ` n.%.i a &.q.+.+.O.X.x & . . . .               X X X X     4 ] m.z.z.P.g.) z.P.P.k.) ",
"= = + + + + @ @ ) 4 4 I P % i c.t.w.+.+.o.Y y . . . .               X @ X X       @ 3 3 7 F S @   X @ @   ",
"/ / / ^ ^ ^ ) ) ) 4 p h.%.u a M./.w.q.w.w.O.t . . . .               X @ X X       7 F 3 @ 7 F L ) ) ] ] ] ",
"=X=X=X=X=X-X1X1X%.p [ 9X*XB u c.'.w.7.w.y.q.t . . . .               X @ X X     7 P.6Xz.F F P.rX7X5X<X5X6X",
"B.B.B.l.l.l.z.z.g.p _ uX9Xa % *./.7.+.w.'.r.t . . . .               X @ X X     @ P.gXP.7 3 z.gXP.z.g.k.z.",
"+X+X+X+X@X@X@X@Xk.8 I iX9Xi < n.y.+.O.q.'.r.y . . . .               X X X X       g.5Xg.@ @ ' 5X5X!.P.P.!.",
"B.B.B.B.B.B.z.z.P.8 G 9X2Xi a 8Xy.@.X.7.'.r.y . . . .               X X X X     3 k.<Xk.F L z.<XP.g.' g.z.",
"L.L.B.l.l.B.H.P.g.8 _ dX0Xu < [.q.e.w.o.q.r.z . .                               3 g.!.g.8 F g.E.!.!.!.E.P.",
"=X=X-X+X+X-X1X<Xg.p _ uX2Xu u  Xq.e.w.o.q.r.z . .                               L E.eXE.] ' E.6XE.:X:X:X!.",
"f.f.6.6.6.6.f.g.' 4 G }.m.% < [.q.e.w.o.q.r.z . .                               @ ] P.' F L ' z.' g.z.z.g.",
"h h 2 2 2 9 8 8 ` 3 p h._ . < M.q.e.w.o.q.r.z . .                                 3 L F @ 3 8 F 8 L ) L 7 ",
"( / ^ ^ ^ ^ ) ] k.L I n.$.% i (.q.e.w.o.q.r.z . .           O                     L k.g.) ) ' ] L ) ] L @ ",
"XXK.J.H.H.H.W.E.:Xm.^.*Xm.B U  Xq.e.w.o.q.r.z . .           O                   3 g.<X:XE.!.!.P.P.!.:Xg.8 ",
"+XXXK.J.J.U.W.!.6X}.2X0XI.I U M.q.e.w.o.q.r.z . .           O                   3 ' :X<X:X<X!.z.!.6XeXP.F ",
"@XT.T.U.U.T.W.@X1XE.*X9Xn.d a *.=.u.w.+.q.r.z           O O O O                 @ ] *X<X<X<X!.k.k.!.:Xg.3 ",
"D.D.G.G.F.F.C.F.U.Z.I.|.v.d d =.pX:. .<..X[.H           O O O O O                 ' <X<XP.P.P.P.k.!.<Xk.7 ",
"D.D.D.S.S.C.C.C.U.j.b.].=.w e ..`.>.:.`.sX|.H     X O O O O : O                 X ) !.!.P.E.E.P.k.E.:Xg.3 ",
"8X8X4X4X4X3X3X3XqXG.D.&Xv.f { _.s.>.a.aXdX8XG     X O O O : : O                 7 g.!.!.!.5X5X!.P.:X<Xk.8 ",
"b.b.b.j.j.N.N.N.OX6.8. Xv.f { aXs.>.1..X0X[.G   X X O O O : : O                 7 ) k.g.g.z.z.' ' k.z.] 3 ",
"& $ $ o * * * * R o ; &.} # q s.`.>...<.).r.k   X X O O O O : O                 @ F ) F 3 8 F 3 7 F L 8 @ ",
"U U E E E T T T g   $ b.=.# q _.`.>... .=.$.k + X X O O O O : O                 3 ] k.) 3 8 L ) L ) ] ] ) ",
"&X&X%X$X$X#X#X#X6.; E wX.Xw r `.s.>.:.<.v.$.k X X X X O O O : O                 8 P.6Xz.L L P.6XP.P.E.E.P.",
"r.r.8.0.x.9.9.9.9.5 W dX.X0 0 1.>.>._.`. Xr.k   X X X O O O : O                   ' <Xg.7 F P.yXP.P.P.P.z.",
"{.{.{.Y.Y.oXoXoXF.; 5 ].v.# 0 `.>.4...<.).&.5       O O O O : O     X X X X     7 P.6Xz.F L P.eXE.!.!.!.!.",
"b.b.b.j.j.N.N.N.T   ; {.).0 0 1.2.;.-.<.).&.p         O O O O O                 3 g.E.) @ 3 ] E.P.P.z.z.P.",
"D.D.D.G.G.C.C.C.R * H wXsXf q -.s.>.:.<./.&.k         O O O O O         X       7 g.~.] 3 F k.5X6X!.P.E.<X",
"|.|.%X$X$X#X#XOXx.H 8.dXsX{ e -.d.3.1.1.=.$.F @ + + > > > , , , O @ @ @ @ @ @ X F z.:Xk.) g.6XgXyX6X:X5XgX",
"$.$.$.] 5.5.5.5.] 5 H M.v.e e :.d.3.1.=.*.U F 9 2 2 c c n n b v 6 7 7 8 8 7 7 3 3 ' P.] F L k.E.P.g.g.z.!.",
"$ $ $ o * - - - 9   . x d 0 e :.s.2.:. .| G p 8 S A A A Z Q Q J N F F L L F F F   F ) 8     @ @ 3 3 7 7 7 ",
"s s s j g g g g 5.k l $.} w f :.2.2.-.| d s 5 h S A A A D Q Q Q F F F L L F F F   L g.] F 8 8 7 8 L ) F @ ",
"{.{.Y.Y.Y.U.U.U.fXqX4XwX X} | =.1.:.#.Y s 4 7 v Z Z Z Z D D V V v F F F F F F 8 3 g.6X6X5X6X6X<XP.5XeXP.L ",
"S.S.S.S.S.S.S.S.OX$XA.D.%XH $ c.c.P 7 B J N b ~ m m M M C C C V K F 8 F L F 8 3 3 ' :X!.P.E.E.P.!.P.<XP.@ ",
"S.S.S.S.S.S.S.S.OX$XZ.G.$Xl o g.g.L 6 v Q b b ~ V C C C C C i.C ! F 8 F L F 8 3 3 ' :X!.P.E.E.P.!.P.<XP.@ ",
"S.S.S.S.S.S.S.S.Y.$XA.Y.$Xl o 0.p.F 6 v Q b b ~ V C C C C C i.C ! F 8 F L F 8 3 3 ' :X!.P.!.E.P.!.P.<XP.@ ",
"S.S.S.S.S.S.S.S.Y.$XA.Y.$Xk   ] ` v 6 N Q b b ~ V C C C C C i.C ! F 8 F L F 8 3 3 g.:X!.P.!.E.P.!.P.<XP.@ ",
"S.S.S.S.S.S.S.S.G.OXA.Y.$Xj   E I 6 1 J ! b b ~ V C C C C C i.C ! F 8 F L F 8 3 3 ' :X!.P.E.E.P.!.P.<XP.@ ",
"S.S.S.S.S.S.S.S.G.OXS.OX$Xj   H L 3 , J ~ N b Q V C C C C C i.C ! F 8 F L L 8 3 3 ' :X!.P.E.E.P.!.P.<XP.@ "
};
