/* XPM */
static char *ec97f4f119d640bec8843acaa5563fddQ2L8WnyyrRq2sCox[] = {
/* columns rows colors chars-per-pixel */
"80 80 5 1 ",
"  c black",
". c #5E3A04",
"X c #464646",
"o c #FFF200",
"O c gray52",
/* pixels */
"                                                                                ",
"OOOOOOOOOOO  OOOOOOOOOOOOOOOOOOOOOOOOOO  OOOOOOOOOOOOOOOOOOOOOOOOO  OOOOOOOOOOOO",
"OOOOOOOOOOO  OOOOOOOOOOOOOOOOOOOOOOOOOO  OOOOOOOOOOOOOOOOOOOOOOOOO  OOOOOOOOOOOO",
"OOOOOOOOOOO  OOOOOOOOOOOOOOOOOOOOOOOOOO  OOOOOOOOOOOOOOOOOOOOOOOOO  OOOOOOOOOOOO",
"OOOOOOOOOOO  OOOOOOOOOOOOOOOOOOOOOOOOOO  OOOOOOOOOOOOOOOOOOOOOOOOO  OOOOOOOOOOOO",
"OOOOOOOOOOO  OOOOOOOOOOOOOOOOOOOOOOOOOO  OOOOOOOOOOOOOOOOOOOOOOOOO  OOOOOOOOOOOO",
"OOOOOOOOOOO  OOOOOOOOOOOOOOOOOOOOOOOOOO  OOOOOOOOOOOOOOOOOOOOOOOOO  OOOOOOOOOOOO",
"OOOOOOOOOOO  OOOOOOOOOOOOOOOOOOOOOOOOOO  OOOOOOOOOOOOOOOOOOOOOOOOO  OOOOOOOOOOOO",
"OOOOOOOOOOO  OOOOOOOOOOOOOOOOOOOOOOOOOO  OOOOOOOOOOOOOOOOOOOOOOOOO  OOOOOOOOOOOO",
"OOOOOOOOOOO  OOOOOOOOOOOOOOOOOOOOOOOOOO  OOOOOOOOOOOOOOOOOOOOOOOOO  OOOOOOOOOOOO",
"OOOOOOOOOOO  OOOOOOOOOOOOOOOOOOOOOOOOOO  OOOOOOOOOOOOOOOOOOOOOOOOO  OOOOOOOOOOOO",
"                                                                                ",
"                                                                                ",
"OOOOOOOOOOOOOOOO                                               OOOOOOOOOOOOOOO  ",
"OOOOOOOOOOOOOOOO                                               OOOOOOOOOOOOOOO  ",
"OOOOOOOOOOOOOOOO  ..                                           OOOOOOOOOOOOOOO  ",
"OOOOOOOOOOOOOOOO  ...                                          OOOOOOOOOOOOOOO  ",
"OOOOOOOOOOOOOOOO  ....                                         OOOOOOOOOOOOOOO  ",
"OOOOOOOOOOOOOOOO  .....                                        OOOOOOOOOOOOOOO  ",
"OOOOOOOOOOOOOOOO  ......                                       OOOOOOOOOOOOOOO  ",
"OOOOOOOOOOOOOOOO  ........                                     OOOOOOOOOOOOOOO  ",
"OOOOOOOOOOOOOOOO  .........                                    OOOOOOOOOOOOOOO  ",
"OOOOOOOOOOOOOOOO  ..........                                   OOOOOOOOOOOOOOO  ",
"OOOOOOOOOOOOOOOO  ...........                                  OOOOOOOOOOOOOOO  ",
"                  ............                                                  ",
"                  ..............                                                ",
"OOOOOOOOOOO  OOO  ...............                              OOO  OOOOOOOOOOOO",
"OOOOOOOOOOO  OOO  ...............                              OOO  OOOOOOOOOOOO",
"OOOOOOOOOOO  OOO  ...............                              OOO  OOOOOOOOOOOO",
"OOOOOOOOOOO  OOO  ...............                              OOO  OOOOOOOOOOOO",
"OOOOOOOOOOO  OOO  ...............                              OOO  OOOOOOOOOOOO",
"OOOOOOOOOOO  OOO  ...............                              OOO  OOOOOOOOOOOO",
"OOOOOOOOOOO  OOO  ...............                              OOO  OOOOOOOOOOOO",
"OOOOOOOOOOO  OOO  ...............                              OOO  OOOOOOOOOOOO",
"OOOOOOOOOOO  OOO  ...............                              OOO  OOOOOOOOOOOO",
"OOOOOOOOOOO  OOO  ...............                              OOO  OOOOOOOOOOOO",
"OOOOOOOOOOO  OOO  ...............                              OOO  OOOOOOOOOOOO",
"OOOOOOOOOOO  OOO  ...............                              OOO  OOOOOOOOOOOO",
"OOOOOOOOOOO  OOO  ...............                              OOO  OOOOOOOOOOOO",
"                  ...............                                               ",
"                  ...............                                               ",
"OOOOOOOOOOOOOOOO  ...............                              OOOOOOOOOOOOOOO  ",
"OOOOOOOOOOOOOOOO  ...............                              OOOOOOOOOOOOOOO  ",
"OOOOOOOOOOOOOOOO  ...............                              OOOOOOOOOOOOOOO  ",
"OOOOOOOOOOOOOOOO  ...............                              OOOOOOOOOOOOOOO  ",
"OOOOOOOOOOOOOOOO  ...............                              OOOOOOOOOOOOOOO  ",
"OOOOOOOOOOOOOOOO  ...............                              OOOOOOOOOOOOOOO  ",
"OOOOOOOOOOOOOOOO  ...............                              OOOOOOOOOOOOOOO  ",
"OOOOOOOOOOOOOOOO  ...............                              OOOOOOOOOOOOOOO  ",
"OOOOOOOOOOOOOOOO  ...........oo..                              OOOOOOOOOOOOOOO  ",
"OOOOOOOOOOOOOOOO  ...........oo..                              OOOOOOOOOOOOOOO  ",
"OOOOOOOOOOOOOOOO  ...............                              OOOOOOOOOOOOOOO  ",
"OOOOOOOOOOOOOOOO  ...............                              OOOOOOOOOOOOOOO  ",
"                  ...............                                               ",
"                  ...............                                               ",
"OOOOOOOOOOO  OOO  ...............                              OOO  OOOOOOOOOOOO",
"OOOOOOOOOOO  OOO  ...............                              OOO  OOOOOOOOOOOO",
"OOOOOOOOOOO  OOO  ...............                              OOO  OOOOOOOOOOOO",
"OOOOOOOOOOO  OOO  ...............                              OOO  OOOOOOOOOOOO",
"OOOOOOOOOOO  OOO  ...............                              OOO  OOOOOOOOOOOO",
"OOOOOOOOOOO  OOO  ...............                              OOO  OOOOOOOOOOOO",
"OOOOOOOOOOO  OOO  ...............                              OOO  OOOOOOOOOOOO",
"OOOOOOOOOOO  OOO  ...............                              OOO  OOOOOOOOOOOO",
"OOOOOOOOOOO  OOO  ...............                              OOO  OOOOOOOOOOOO",
"OOOOOOOOOOO  OOO  ...............                              OOO  OOOOOOOOOOOO",
"OOOOOOOOOOO  OOO  ...............                              OOO  OOOOOOOOOOOO",
"                  ...............                                               ",
"                  ...............                                               ",
"OOOOOOOOOOOOOOOO  ...............                              OOOOOOOOOOOOOOO  ",
"OOOOOOOOOOOOOOOO  ...............                              OOOOOOOOOOOOOOO  ",
"OOOOOOOOOOOOOOOO  ..............XXXXXXXXXXXXXXXXXXXXXXXXXXXXX  OOOOOOOOOOOOOOO  ",
"OOOOOOOOOOOOOOOO  ............XXXXXXXXXXXXXXXXXXXXXXXXXXXXXXX  OOOOOOOOOOOOOOO  ",
"OOOOOOOOOOOOOOOO  ..........XXXXXXXXXXXXXXXXXXXXXXXXXXXXXXXXX  OOOOOOOOOOOOOOO  ",
"OOOOOOOOOOOOOOOO  ........XXXXXXXXXXXXXXXXXXXXXXXXXXXXXXXXXXX  OOOOOOOOOOOOOOO  ",
"OOOOOOOOOOOOOOOO  ......XXXXXXXXXXXXXXXXXXXXXXXXXXXXXXXXXXXXX  OOOOOOOOOOOOOOO  ",
"OOOOOOOOOOOOOOOO  ....XXXXXXXXXXXXXXXXXXXXXXXXXXXXXXXXXXXXXXX  OOOOOOOOOOOOOOO  ",
"OOOOOOOOOOOOOOOO  ..XXXXXXXXXXXXXXXXXXXXXXXXXXXXXXXXXXXXXXXXX  OOOOOOOOOOOOOOO  ",
"OOOOOOOOOOOOOOOO  XXXXXXXXXXXXXXXXXXXXXXXXXXXXXXXXXXXXXXXXXXX  OOOOOOOOOOOOOOO  ",
"OOOOOOOOOOOOOOOO  XXXXXXXXXXXXXXXXXXXXXXXXXXXXXXXXXXXXXXXXXXX  OOOOOOOOOOOOOOO  ",
"                  XXXXXXXXXXXXXXXXXXXXXXXXXXXXXXXXXXXXXXXXXXX                   "
};
