/* XPM */
static char *cdfeea4491214debea00e1620f05c746cehPqhMk83ReNIun[] = {
/* columns rows colors chars-per-pixel */
"54 55 132 2 ",
"   c black",
".  c #010101",
"X  c #020202",
"o  c gray1",
"O  c #040404",
"+  c gray2",
"@  c #060606",
"#  c #070707",
"$  c gray3",
"%  c #090909",
"&  c gray4",
"*  c #0B0B0B",
"=  c #0C0C0C",
"-  c gray5",
";  c #0E0E0E",
":  c gray6",
">  c #101010",
",  c #111111",
"<  c gray7",
"1  c #131313",
"2  c gray8",
"3  c #151515",
"4  c #161616",
"5  c gray9",
"6  c #181818",
"7  c #191919",
"8  c gray10",
"9  c #1B1B1B",
"0  c gray11",
"q  c #1D1D1D",
"w  c #1E1E1E",
"e  c gray12",
"r  c #202020",
"t  c gray13",
"y  c #222222",
"u  c #232323",
"i  c gray14",
"p  c #252525",
"a  c gray15",
"s  c #272727",
"d  c #282828",
"f  c gray16",
"g  c #2A2A2A",
"h  c gray17",
"j  c #2C2C2C",
"k  c #2D2D2D",
"l  c gray18",
"z  c #2F2F2F",
"x  c gray19",
"c  c #313131",
"v  c #323232",
"b  c gray20",
"n  c #343434",
"m  c #353535",
"M  c gray21",
"N  c #373737",
"B  c gray22",
"V  c #393939",
"C  c #3A3A3A",
"Z  c gray23",
"A  c #3C3C3C",
"S  c gray24",
"D  c #3E3E3E",
"F  c #3F3F3F",
"G  c gray25",
"H  c #414141",
"J  c gray26",
"K  c #434343",
"L  c #444444",
"P  c gray27",
"I  c #464646",
"U  c gray28",
"Y  c #484848",
"T  c #494949",
"R  c gray29",
"E  c #4B4B4B",
"W  c #4C4C4C",
"Q  c gray30",
"!  c #4E4E4E",
"~  c gray31",
"^  c #505050",
"/  c #515151",
"(  c gray32",
")  c #535353",
"_  c gray33",
"`  c #555555",
"'  c #565656",
"]  c gray34",
"[  c #585858",
"{  c gray35",
"}  c #5A5A5A",
"|  c #5B5B5B",
" . c gray36",
".. c #5D5D5D",
"X. c gray37",
"o. c #5F5F5F",
"O. c #606060",
"+. c gray38",
"@. c #626262",
"#. c gray39",
"$. c #646464",
"%. c #656565",
"&. c gray40",
"*. c #676767",
"=. c #686868",
"-. c DimGray",
";. c #6A6A6A",
":. c gray42",
">. c #6C6C6C",
",. c #6D6D6D",
"<. c gray43",
"1. c #6F6F6F",
"2. c gray44",
"3. c #717171",
"4. c #727272",
"5. c gray45",
"6. c #747474",
"7. c gray46",
"8. c #767676",
"9. c #777777",
"0. c gray47",
"q. c #797979",
"w. c gray48",
"e. c #7B7B7B",
"r. c #7C7C7C",
"t. c gray49",
"y. c #7E7E7E",
"u. c gray50",
"i. c #808080",
"p. c #818181",
"a. c gray51",
"s. c #848484",
/* pixels */
"    @       @ < s     s 4 < 4                   @ 4     <     < * * * * * * * * * - - * - 6 4 *             ",
"j v m v j j m J m * s Y Z Z U v v v m Z Z m v v J Y s 0 U J j Y m m m m m m m m m D D m j m D J D D D D D D ",
"` { X.{ ` ` @.;.m 0 U ;.^ ^ <.$.X.@.@.$.$.@.@.X.<.<.Z j $.4.X.4.@.X.X.X.X.X.X.X.` @.;.{ U J { 6.$.$.$.$.$.$.",
"{ X.@.X.{ { $.<.j 6 Y <.! Y <.<.X.@.$.$.$.$.@.X.$.@.s - ^ 4.X.$.@.@.@.@.@.@.@.@.` @.<.X.Z d ! s.{ { { { { { ",
"! ` { ` ! ! { $.j 6 U ;.U D X.X.! ^ ^ ` ` ^ ^ ! { X.6   D $.{ ` ` ` ` ` ` ` ` ` Y ^ @.` d - Z y.! ! ! ! ! ! ",
"! ` ` ` ! ! { @.D u U $.Y U X.^ Y ! ^ ^ ^ ^ ! Y X.4.m * J <.@.@.^ ^ ^ ^ ^ ^ ^ ^ ! ! { X.m - v 6.` ` { ` ` ` ",
"^ ` { ` ^ ^ X.$.J 6 m X.^ ^ @.! ^ ` { { { { ` ^ { y.^ 6 J ;.@.@.^ ^ ` ` ^ ^ ^ ^ { Y { ;.Y 6 j <.{ { { { { { ",
"! ` { ` ! ^ { $.Z - s ^ ^ { @.Y ` { X.X.X.X.{ { U e.` 4 m { ^ ` ^ ^ ^ ^ ^ ^ ^ ^ { U ^ <.^ u d @.Y Y Y Y ! Y ",
"` ` ` ` ` ` ` ` ! J U { X.! Y { <.` $.$.J ` <.Y <.` D D ^ X.^ U Y { X.` ` @.{ J ! ^ ` ^ U J U Y ^ ^ ` @.;.;.",
"- - - - - - - - -   @ 6 6 * * 6 4   4 0   - u   s <     < 6 -   * 4 <   * 4 <   * < 4 - @     * @ @ * - < * ",
"s s s s d d s s v u s m Z d d Z 6   s D u d m 6 Z j s d m Z d 6 j j u - 4 j v u d j v j s u s j u u s u 4 * ",
"$.$.$.$.$.$.$.$.4.@.@.4.6.;.;.y.U j { i.;.$.4.{ <.;.$.<.6.6.$.` 6.<.^ D ! <.e.;.$.;.4.<.$.@.$.<.;.;.;.X.Y m ",
"{ { { { { { { { $.^ ! X.X.` { <.v 4 J 6.$.` @.^ ` ` ` X.@.{ ! U <.X.Z s Z @.<.@.! ` X.{ ^ ^ ` X.@.$.;.` Z 0 ",
"! ! ! ! ! ! ! ! { Y J ! ^ Y ^ $.j @ v 4.X.Y ` ! Y Y ! ! Y U J D $.! d 4 j { $.^ J Y ^ ! Y U ! ` ^ X.@.! j < ",
"X.X.X.X.@.X.X.X.6.@.{ @.$.X.;.y.Y 6 J i.<.` $.$.@.$.@.X.` ` { X.4.{ m s J 4.6.X.` X.$.$.X.X.$.<.` $.<.{ m 0 ",
"^ ^ ^ ` ` ^ ^ ^ 4.X.^ X.X.{ $.e.Y < Z 6.@.Y { @.@.@.X.^ ! ! ` @.@.Y s 6 Z $.;.! ^ { @.@.{ { @.;.D ! { Y s - ",
"{ { { { { { { { $.! X.X.D ^ ;.Y 0 j U { $.@.{ ^ { { { { { { { { @.^ v 0 Z @.;.{ ` { { { X.$.@.^ X.4.e.@.m < ",
"$.$.$.$.$.$.$.$.<.` $.;.! X.4.` m J ^ @.;.;.$.X.$.$.$.$.$.$.$.$.X.^ Z d J $.;.` @.$.$.$.$.<.$.X.m Y ` U s * ",
"                4   - 6   * 0 @                                 @         6 6   < - - < < - - - @ 4 s u -   ",
"u u u u u u u u d @ 0 Z 0 u m u u u 0 0 0 u u s u u u u u u u u d j s 0 d J D s j s s d s 6 0 j 4 u j j s 0 ",
";.;.<.;.;.;.;.;.` d Y <.` ! @.{ e.6.<.$.$.$.;.<.;.;.;.;.;.;.;.;.` @.@.` X.<.;.` @.^ ^ X.! Z J @.` X.@.@.{ ` ",
"^ ^ ^ ^ ^ ^ ^ ^ J 4 m ;.^ J ` ^ { { ^ ! ! ! ! ! ^ ^ ^ ^ ^ ^ ^ ^ J ^ ! J J ^ ^ J ` J U ^ D 0 j X.$.$.$.@.X.X.",
"{ { { { { { { { { s Y s.4.{ <.4.{ { { ` ` ` ^ ^ { { { { { { { { { ;.;.` ^ @.$.X.4.{ { <.` j J e.` ^ Y Y Y Y ",
"` ` ` ` ` ` ` ` D @ d <.{ J ^ { ! ! ^ ` ^ ! Y Y ` ` ` ` ` ` ` ` ! X.` J Z ! ` ^ { D J ^ Z - u @.X.` ! ! ` { ",
"! ! ! ! ! ! ! ! D u j @.$.J Z { $.Z Y $.U U @.` ` ` ` ` ` ` ` ` J ` ` U D Y ! U ^ J ^ $.J < s $.` U J ^ { ! ",
"! ! ! ! ! ! ! ! Y v J 4.e.X.{ e.$.Z ! $.Y U X.^ U U U U U U U U ^ $.;.{ ` @.@.` $.{ $.6.{ d D e.4.X.{ ;.;.{ ",
";.;.;.;.;.$.;.;.m u v { $.^ ^ <.i.` ;.s.$.@.6.;.@.@.@.@.@.@.@.@.U ` { ! ! { { U ` Y ` @.U u v $.{ ! ^ @.@.^ ",
"6 6 6 6 6 6 6 6 <   - d v u u m j @ 0 Z 6 4 s 6 s s s s s s s s u j j s d D m u s u s j 6   - m s 0 d D D j ",
"4 4 4 4 4 4 4 4 s 0 0 d d u 0 s 6   < j 4 - u < s s s s s s s s u s 0 < 0 m v 0 s s d j 0 - 6 v s u j Z d - ",
"@.@.@.@.@.@.@.@.@.X.{ { ` ^ ! ! ^ j ! 4.{ ` ;.{ @.@.@.@.@.@.@.@.Y J j u v ` ` J ` { { { ! ! ` @.{ ` X.{ m @ ",
"^ ^ ^ ^ ^ ^ ^ ^ 4.4.4.;.$.;.;.;.d * v { U U { Y U U U U U U U U $.` m s D $.<.X.;.4.4.;.$.;.4.4.@.@.<.;.D * ",
"@.@.@.@.@.@.@.@.` { { ^ ^ X.@.X.j - m @.^ ^ $.{ ` ` ` ` ` ` ` ` $.^ d 4 j X.<.X.` X.X.^ ^ { @.X.D U ` { m @ ",
"^ ^ ! ! ^ ` { X.<.^ Y @.4.;.X.@.D 6 J 4.{ Y ` Y ` $.@.Y J ^ ` ! { ! d < d X.;.^ $.^ ! @.$.{ ` X.J { ;.X.Z 0 ",
"{ ` ` ` ` { X.@.@.Y U ` X.^ ^ X.m 4 D <.{ ^ @.^ ^ @.@.! Y ` ` Y @.` m u Z $.4.X.` U U ` { ! Y { J ` $.` v < ",
"^ ! ! ! ! ^ ` { 4.$.@.;.@.^ X.6.s * v X.Y Y X.! U ` { Y Y ` ! D ` Y v u v ` X.^ @.` ` ;.;.X.@.4.` $.<.X.Z 0 ",
";.;.$.$.;.<.4.6.;.@.@.$.^ J ` 6.^ Z { 6.@.;.e.@.$.4.4.;.<.e.4.{ ;.X.Y J ! @.;.$.{ ! ` $.$.` X.4.U ! ` Y v 0 ",
"u 0 0 0 0 u s d j d j v u < u J u - d m 4 u v < s j d u d D v 6 d 6 - < 6 0 u s u 0 d m j 0 s D 4 0 u 0 < * ",
"            @ * 4 - 4 u 0 - 4 d -   4 4   @ 4   - -     @ 0 6   4 @ @ - < @ * 4 6 4 u d 6 @ < j u u s s s u ",
"$.@.@.X.@.$.;.<.v u d Y ` U D J <.$.e.4.^ <.i.^ 4.;.^ J { e.e.@.6.$.;.y.e.@.@.e.J U ! ^ D u j ! { ` ^ ` ` ` ",
"{ { ` ` { X.@.$.J v Z @.6.<.{ ^ ` ^ ;.X.J $.e.Y $.` Z d J $.;.` X.! ^ ;.@.U U X.@.@.<.<.^ m J @.6.<.$.$.$.@.",
"! Y Y Y Y ! ^ ` Z < v $.X.@.;.Y ! ! ! ! ! ! Y Y U ;.J - m ` Y ! D U ` @.@.X.^ Y D { Y 6.Y   J 4.J ! { ` U m ",
"{ { ` ` ` { @.@.m - j X.` { @.U ;.;.$.@.X.X.{ { X.i.` u U ;.@.$.@.@.@.$.$.$.$.$.D { U 4.Y   D $.! { $.;.@.X.",
"Y Y U U Y ! ^ ` m - j { ! ! { J ! ! ! ^ ^ ^ ^ ^ ! 4.J - v ` ^ ` X.` Y J J Y ^ ` U X.J ;.U   D { J Y ^ ^ Y Y ",
"` ` ^ ^ ` { X.@.! d Y <.{ { ;.` J U Y ^ { @.$.;.! <.J - v ` ^ ^ @.{ ^ Y U Y ! ^ X.6.` 6.X.u { @.` { { ! J D ",
"$.$.@.@.$.;.<.4.` v ^ 4.` ^ $.{ @.@.$.;.<.<.4.6.` y.` s Y ;.X.X.;.;.;.$.$.@.X.{ X.6.! <.X.j @.{ 6.6.6.;.X.{ ",
"d s s s s d j v d * d J u 6 v j J D Z m v j j d 0 ! j   d J j s v v m m m v j d s D < j d * Z 0 Z J U J Z m ",
"< - - - - < 4 6 s * d J 4 - d d < < < < < < < <   m 0   u m 4 * 6 4 - * - < 6 0 4 j   6 u - Z 4 - 4 u 0 < * ",
"{ { ` ` { X.@.$.$.Y $.y.^ Y $.$.s d m D Y ` X.@.D 6.$.U <.e.` U { ! D v m U { ;.Y $.v ! X.^ e.! D Y ! U v 6 ",
"X.X.X.X.X.X.X.X.@.@.@.@.@.@.@.@.Y * { $.! ;.! { { { X.@.@.X.{ { X.;.Z u ` <.{ { X.X.X.X.X.X.X.X.! $.J @.Y   ",
"{ { { { { { { { ^ ^ ^ ^ ^ ^ ^ ^ U @ ` X.Y @.Y ` ` ` { X.X.{ ` ` ! { d < U X.Y Y { { { { { { { { ! $.J @.U   ",
"` ` ` ` ` ` ` ` ^ ^ ^ ^ ^ ^ ^ ^ J   ^ X.U @.U ` ^ ^ ` { { ` ^ ^ ! { s - U X.U U ` ` ` ` ` ` ` ` ! $.J @.U   ",
"` ` ` ` ` ` ` ` X.X.X.X.X.X.X.X.J @ ^ X.Y @.Y ` ^ ` { { { { ` ^ { $.m 6 ^ ;.^ ` ` ` ` ` ` ` ` ` Y @.D X.U   ",
"{ { { { { { { { @.@.@.@.@.@.@.@.U * ` @.Y $.Y { ` { X.X.X.X.{ ` X.;.m 0 ` <.` ` { { { { { { { { Y @.D X.J   ",
"` ` ` ` ` ` ` ` ^ ^ ^ ^ ^ ^ ^ ^ J   ^ X.U @.U ` ^ ` ` { { ` ` ^ ! { s - U X.U U ` ` ` ` ` ` ` ` U X.Z { J   ",
"Y Y Y Y Y Y Y Y J J J J J J J J m   U ^ Z ` Z Y U U Y ! ! Y U U J ! 6   Z ^ Z Z Y Y Y Y Y Y Y Y U X.Z { D   "
};
