/* XPM */
static char *_2c81be1eca84185f012ba91ab2451e5xXNbcviqWUggwl2C[] = {
/* columns rows colors chars-per-pixel */
"80 80 5 1 ",
"  c black",
". c #402639",
"X c #F2CB05",
"o c #F2E632",
"O c #FFFF3A",
/* pixels */
"........................  ...........................  .......................  ",
"........................  ...........................  .......................  ",
"........................  ...........................  .......................  ",
"........................  ...........................  .......................  ",
"........................  ...........................  .......................  ",
"........................  ...........................  .......................  ",
"........................  ...........................  .......................  ",
"........................  ...........................  .......................  ",
"........................  ...........................  .......................  ",
"........................  .........OOOOOOOO..........  .......................  ",
"........................  .......OOOOOOOOOOOO........  .......................  ",
"........................  .....OOOOOOOOOOOOOOOO......  .......................  ",
"........................  ....OOOOOOOOOOOOOOOOOX.....  ....oo............oo...  ",
"........................  ...OOOOOOOOOOOOOOOOOXXX....  ....oo............oo...  ",
"........................  ..OOOOOOOOOOOOOOOOXXXXXX...  .......................  ",
"........................  ..OOOOOOOOOOOOOOXXXXXXXX...  .......................  ",
"........................  .OOOOOOOOOOOOOXXXXXXXXXXX..  .......................  ",
"........................  OOOOOOOOOOOOXXXXXXXXXXXXXX.  .......................  ",
"........................  OOOOOOOOOOXXXXXXXXXXXXXXXX.  .......................  ",
"........................ OOOOOOOOOXXXXXXXXXXXXXXXXXXX                           ",
"........................ OOOOOOOXXXXXXXXXXXXXXXXXXXXX                           ",
"........................ OOOOOXXXXXXXXXXXXXXXXXXXXXXX  .......................  ",
"........................ OOOXXXXXXXXXXXXXXXXXXXXXXXXX  .......................  ",
"........................XXXXXXXXXXXXXXXXXXXXXXXXXXXXXX .......................  ",
"........................XXXXXXXXXXXXXXOOOXXXXXXXXXXXXX .......................  ",
"........................XXXXXXXXXXXXXXOOOXXXXXXXXXXXXX .......................  ",
"........................XXXXXXXXXXXXXXOOOXXXXXXXXXXXXX ....oo............oo...  ",
"........................XXXXXXXXXXXXXXOOOXXXXXXXXXXXXX ....oo............oo...  ",
"........................XXXXXXXXXXXXXXOOOXXXXXXXXXXXXX .......................  ",
"........................XXXXXXXXXXXXXXOOOXXXXXXXXXXXXX .......................  ",
"........................XXXXXXXXXXXXXXOOOXXXXXXXXXXXXX .......................  ",
"........................XXXXXXXXXXXXXXOOOXXXXXXXXXXXXX .......................  ",
"........................XXXXXXXXXXXXXXOOOXXXXXXXXXXXXX .......................  ",
"........................ XXXXXXXXXXXXXXXXXXXXXXXXXXXX  .......................  ",
"........................ XXXXXXXXXXXXXXXXXXXXXXXXXXXX  .......................  ",
"........................ XXXXXXXXXXXXXXXXXXXXXXXXXXXX  .......................  ",
"........................ XXXXXXXXXXXXXXXXXXXXXXXXXXXX  .......................  ",
"........................  XXXXXXXXXXXXXXXXXXXXXXXXXX.  .......................  ",
"........................  XXXXXXXXXXXXXXXXXXXXXXXXXX.  .......................  ",
"........................   XXXXXXXXXXXXXXXXXXXXXXXX    .......................  ",
"........................    XXXXXXXXXXXXXXXXXXXXXX     .......................  ",
"........................  ..XXXXXXXXXXXXXXXXXXXXXX...  .......................  ",
"........................  ...XXXXXXXXXXXXXXXXXXXX....  .......................  ",
"........................  ....XXXXXXXXXXXXXXXXXX.....  .......................  ",
"........................  .....XXXXXXXXXXXXXXXX......  .......................  ",
"........................  .......XXXXXXXXXXXX........  .......................  ",
"........................  ....oo...XXXXXXXX....oo....  .......................  ",
"........................  ....oo...............oo....  .......................  ",
"........................  ...........................  .......................  ",
"........................  ...........................  .......................  ",
"........................  ...........................  .......................  ",
"....oo............oo....  ...........................  .......................  ",
"....oo............oo....  ...........................  .......................  ",
"........................  ...........................  .......................  ",
"........................  ...........................  .......................  ",
"........................  ...........................  .......................  ",
"........................  ...........................  .......................  ",
"........................  ...........................  .......................  ",
"                          ...........     ...........  .......................  ",
"                          .......             .......  .......................  ",
"........................  ...                     ...  .......................  ",
"........................                               .......................  ",
"........................                               .......................  ",
"........................                               .......................  ",
"........................                               .......................  ",
"....oo............oo....                               .......................  ",
"....oo............oo....  ....                   ....  .......................  ",
"........................  .......             .......  .......................  ",
"........................  ...........     ...........  .......................  ",
"........................  ...........................  .......................  ",
"........................  ...........................  .......................  ",
"........................  ...........................  .......................  ",
"........................  ...........................  .......................  ",
"........................  ...........................  .......................  ",
"........................  ...........................  .......................  ",
"........................  ...........................  .......................  ",
"........................  ...........................  .......................  ",
"........................  ...........................  .......................  ",
"........................  ...........................  .......................  ",
"........................  ...........................  .......................  "
};
